<svg width="192" height="143" viewBox="0 0 192 143" fill="none" xmlns="http://www.w3.org/2000/svg">
<rect width="192" height="143" rx="8" fill="#FFBB00"/>
<path d="M41.41 68.5465C41.977 67.7065 42.754 67.024 43.741 66.499C44.749 65.974 45.8935 65.7115 47.1745 65.7115C48.6655 65.7115 50.0095 66.079 51.2065 66.814C52.4245 67.549 53.38 68.599 54.073 69.964C54.787 71.308 55.144 72.8725 55.144 74.6575C55.144 76.4425 54.787 78.028 54.073 79.414C53.38 80.779 52.4245 81.8395 51.2065 82.5955C50.0095 83.3515 48.6655 83.7295 47.1745 83.7295C45.8725 83.7295 44.728 83.4775 43.741 82.9735C42.775 82.4485 41.998 81.7765 41.41 80.9575V83.446H37V60.136H41.41V68.5465ZM50.6395 74.6575C50.6395 73.6075 50.419 72.7045 49.978 71.9485C49.558 71.1715 48.991 70.5835 48.277 70.1845C47.5878 69.7865 46.8048 69.5799 46.009 69.586C45.211 69.586 44.455 69.796 43.741 70.216C43.048 70.615 42.481 71.203 42.04 71.98C41.62 72.757 41.41 73.6705 41.41 74.7205C41.41 75.7705 41.62 76.684 42.04 77.461C42.481 78.238 43.048 78.8365 43.741 79.2565C44.455 79.6555 45.211 79.855 46.009 79.855C46.828 79.855 47.584 79.645 48.277 79.225C48.991 78.805 49.558 78.2065 49.978 77.4295C50.419 76.6525 50.6395 75.7285 50.6395 74.6575ZM60.5848 63.916C59.8078 63.916 59.1568 63.6745 58.6318 63.1915C58.1278 62.6875 57.8757 62.068 57.8757 61.333C57.8757 60.598 58.1278 59.989 58.6318 59.506C59.1568 59.002 59.8078 58.75 60.5848 58.75C61.3618 58.75 62.0022 59.002 62.5062 59.506C63.0312 59.989 63.2937 60.598 63.2937 61.333C63.2937 62.068 63.0312 62.6875 62.5062 63.1915C62.0022 63.6745 61.3618 63.916 60.5848 63.916ZM62.7582 65.995V83.446H58.3483V65.995H62.7582ZM77.4478 83.446L71.5258 76.012V83.446H67.1157V60.136H71.5258V73.3975L77.3847 65.995H83.1178L75.4318 74.752L83.1807 83.446H77.4478ZM83.5019 74.7205C83.5019 72.9145 83.8694 71.3395 84.6044 69.9955C85.3394 68.6305 86.3579 67.5805 87.6599 66.8455C88.9619 66.0895 90.4529 65.7115 92.1329 65.7115C94.2959 65.7115 96.0809 66.2575 97.4879 67.3495C98.9159 68.4205 99.8714 69.9325 100.354 71.8855H95.5988C95.3468 71.1295 94.9163 70.5415 94.3073 70.1215C93.7193 69.6805 92.9842 69.46 92.1022 69.46C90.8422 69.46 89.8448 69.922 89.1098 70.846C88.3748 71.749 88.0072 73.0405 88.0072 74.7205C88.0072 76.3795 88.3748 77.671 89.1098 78.595C89.8448 79.498 90.8422 79.9495 92.1022 79.9495C93.8872 79.9495 95.0528 79.1515 95.5988 77.5555H100.355C99.8722 79.4455 98.9167 80.947 97.4887 82.06C96.0607 83.173 94.2757 83.7295 92.1337 83.7295C90.4537 83.7295 88.9627 83.362 87.6607 82.627C86.3691 81.8817 85.3109 80.7908 84.6052 79.477C83.8702 78.112 83.5019 76.5265 83.5019 74.7205ZM107.121 68.704C107.662 67.8058 108.42 67.0583 109.326 66.5305C110.25 66.0055 111.3 65.743 112.476 65.743V70.3735H111.31C109.924 70.3735 108.874 70.699 108.16 71.35C107.467 72.001 107.121 73.135 107.121 74.752V83.446H102.711V65.995H107.121V68.704ZM125.998 80.9575C125.515 81.7555 124.728 82.4275 123.636 82.9735C122.544 83.4985 121.368 83.761 120.108 83.761C119.016 83.761 118.029 83.5405 117.147 83.0995C116.265 82.6585 115.572 82.0495 115.068 81.2725C114.564 80.4955 114.312 79.603 114.312 78.595C114.312 76.978 114.91 75.655 116.107 74.626C117.325 73.597 119.142 73.0825 121.557 73.0825H125.998C125.956 71.9695 125.631 71.0875 125.022 70.4365C124.434 69.7645 123.615 69.4285 122.565 69.4285C121.641 69.4285 120.874 69.6805 120.265 70.1845C119.656 70.6675 119.268 71.35 119.1 72.232H114.69C114.9 70.972 115.351 69.8485 116.044 68.8615C116.752 67.8587 117.707 67.0558 118.816 66.5305C119.971 65.9635 121.262 65.68 122.69 65.68C124.16 65.68 125.484 65.9845 126.66 66.5935C127.827 67.1752 128.801 68.0834 129.463 69.208C130.135 70.342 130.471 71.6755 130.471 73.2085V83.446H125.998V80.9575ZM121.399 80.2015C122.134 80.2015 122.848 80.044 123.541 79.729C124.255 79.414 124.843 78.9415 125.305 78.3115C125.767 77.6815 125.998 76.936 125.998 76.075V75.949H121.809C120.801 75.949 120.045 76.1485 119.541 76.5475C119.058 76.9465 118.816 77.4715 118.816 78.1225C118.816 78.7525 119.037 79.2565 119.478 79.6345C119.94 80.0125 120.58 80.2015 121.399 80.2015ZM139.771 69.6175V83.446H135.298V69.6175H133.314V65.995H135.298V65.113C135.298 62.971 135.907 61.396 137.125 60.388C138.343 59.38 140.181 58.9075 142.638 58.9705V62.6875C141.567 62.6665 140.821 62.845 140.401 63.223C139.981 63.601 139.771 64.2835 139.771 65.2705V65.995H145.503V61.6795H149.944V65.995H153.85V69.6175H149.944V78.0595C149.944 78.6475 150.081 79.078 150.354 79.351C150.648 79.603 151.131 79.729 151.803 79.729H153.85V83.446H151.078C147.361 83.446 145.503 81.64 145.503 78.028V69.6175H139.771Z" fill="#222222"/>
</svg>
