<svg width="192" height="143" viewBox="0 0 192 143" fill="none" xmlns="http://www.w3.org/2000/svg">
<rect width="192" height="143" rx="8" fill="black"/>
<path d="M146.271 78.3071C146.271 76.8203 147.617 75.6141 149.272 75.6141C150.93 75.6141 152.274 76.8203 152.274 78.3071C152.274 79.7939 150.93 81 149.272 81C147.617 81 146.271 79.7939 146.271 78.3071Z" fill="#86BC25"/>
<path d="M50.5234 71.1745C50.5234 69.4685 50.1564 68.2025 49.4208 67.3779C48.6852 66.5549 47.5709 66.143 46.0718 66.143H44.478V76.5763H45.6981C47.362 76.5763 48.5821 76.1325 49.3583 75.245C50.1344 74.3575 50.5234 73.0004 50.5234 71.1745ZM56.2085 70.997C56.2085 74.1049 55.2768 76.4996 53.4141 78.1806C51.5515 79.8631 48.933 80.7036 45.5594 80.7036H39V62.0793H46.0168C49.2703 62.0793 51.7832 62.844 53.5536 64.3717C55.3233 65.901 56.2085 68.1084 56.2085 70.997" fill="white"/>
<path d="M74.374 80.7041H79.5925V62.0009H74.374V80.7041Z" fill="white"/>
<path d="M86.9228 73.7252C86.9228 74.9177 87.0961 75.8272 87.4428 76.4523C87.7903 77.0781 88.3728 77.3906 89.1913 77.3906C90.0013 77.3906 90.5728 77.0781 90.9068 76.4523C91.2399 75.8272 91.4065 74.9177 91.4065 73.7252C91.4065 72.5388 91.2374 71.6445 90.9 71.0407C90.561 70.4346 89.9835 70.1319 89.1642 70.1319C88.3635 70.1319 87.7903 70.4331 87.4428 71.0338C87.0961 71.6346 86.9228 72.5313 86.9228 73.7252ZM96.718 73.7252C96.718 75.9971 96.0542 77.7691 94.7234 79.0397C93.3934 80.3111 91.5308 80.9468 89.138 80.9468C86.8425 80.9468 85.0162 80.2967 83.66 78.9965C82.3021 77.6971 81.624 75.9402 81.624 73.7252C81.624 71.4602 82.2886 69.7003 83.6194 68.4456C84.9502 67.191 86.8163 66.5636 89.2183 66.5636C90.7039 66.5636 92.017 66.8542 93.155 67.4345C94.2939 68.0155 95.1724 68.8469 95.7904 69.9301C96.4094 71.0126 96.718 72.2779 96.718 73.7252Z" fill="white"/>
<path d="M98.7881 80.7041H104.007V66.8118H98.7881V80.7041Z" fill="white"/>
<path d="M98.7881 65.1309H104.007V62.0003H98.7881V65.1309Z" fill="white"/>
<path d="M114.583 77.1585C115.287 77.1585 116.127 76.9985 117.106 76.6799V80.1753C116.401 80.4522 115.733 80.6509 115.097 80.7685C114.461 80.8876 113.715 80.9468 112.861 80.9468C111.109 80.9468 109.845 80.5523 109.07 79.7634C108.297 78.9745 107.911 77.7631 107.911 76.1291V70.402H106.083V66.8102H107.911V63.2631L113.169 62.4424V66.8102H116.499V70.402H113.169V75.8098C113.169 76.7087 113.641 77.1585 114.583 77.1585Z" fill="white"/>
<path d="M126.662 77.1585C127.366 77.1585 128.205 76.9985 129.185 76.6799V80.1753C128.482 80.4522 127.812 80.6509 127.176 80.7685C126.539 80.8876 125.795 80.9468 124.939 80.9468C123.188 80.9468 121.924 80.5523 121.151 79.7634C120.376 78.9745 119.99 77.7631 119.99 76.1291V70.402H118.16V66.8102H119.99V63.2093L125.248 62.4424V66.8102H128.579V70.402H125.248V75.8098C125.248 76.7087 125.72 77.1585 126.662 77.1585Z" fill="white"/>
<path d="M135.77 72.0333C135.842 71.2733 136.083 70.7157 136.497 70.3592C136.912 70.0034 137.425 69.8259 138.038 69.8259C138.706 69.8259 139.238 70.0262 139.633 70.4275C140.03 70.828 140.237 71.3628 140.253 72.0333H135.77ZM143.129 68.2018C141.889 67.1103 140.129 66.5648 137.852 66.5648C135.459 66.5648 133.617 67.1914 132.326 68.4468C131.037 69.7015 130.391 71.5016 130.391 73.8478C130.391 76.1197 131.088 77.872 132.48 79.1017C133.872 80.3313 135.828 80.9473 138.346 80.9473C139.556 80.9473 140.597 80.8729 141.468 80.7258C142.335 80.5801 143.175 80.3169 143.989 79.9361L143.187 76.8062C142.595 77.0224 142.032 77.1893 141.501 77.2993C140.733 77.4586 139.89 77.539 138.973 77.539C137.966 77.539 137.172 77.3183 136.591 76.8768C136.009 76.4353 135.698 75.8254 135.663 75.0494H144.992V72.9171C144.992 70.8644 144.37 69.2926 143.129 68.2018Z" fill="white"/>
<path d="M63.134 72.0329C63.205 71.2728 63.4477 70.7152 63.8611 70.3587C64.2754 70.0029 64.7886 69.8254 65.4033 69.8254C66.0696 69.8254 66.6014 70.0257 66.9971 70.427C67.3936 70.8275 67.6008 71.3623 67.6177 72.0329H63.134ZM70.4941 68.2013C69.2537 67.1098 67.4934 66.5644 65.2156 66.5644C62.822 66.5644 60.9805 67.1909 59.6911 68.4464C58.4008 69.701 57.7549 71.5011 57.7549 73.8474C57.7549 76.1193 58.4516 77.8715 59.845 79.1012C61.2367 80.3308 63.1923 80.9468 65.7102 80.9468C66.9201 80.9468 67.961 80.8724 68.8327 80.7253C69.6993 80.5796 70.5389 80.3164 71.3531 79.9356L70.5516 76.8058C69.9597 77.022 69.3966 77.1888 68.8657 77.2988C68.0962 77.4581 67.2541 77.5385 66.3376 77.5385C65.3323 77.5385 64.5367 77.3178 63.955 76.8763C63.3724 76.4348 63.063 75.8249 63.0274 75.0489H72.3559V72.9166C72.3559 70.8639 71.7353 69.2922 70.4941 68.2013" fill="white"/>
</svg>
