<svg width="16" height="16" viewBox="0 0 16 16" fill="none" xmlns="http://www.w3.org/2000/svg">
<path fill-rule="evenodd" clip-rule="evenodd" d="M2.7998 1.60005C2.13706 1.60005 1.5998 2.13731 1.5998 2.80005V13.2C1.5998 13.8628 2.13706 14.4 2.7998 14.4H13.1998C13.8625 14.4 14.3998 13.8628 14.3998 13.2V8.80005H15.1998V13.2C15.1998 14.3046 14.3044 15.2 13.1998 15.2H2.7998C1.69524 15.2 0.799805 14.3046 0.799805 13.2V2.80005C0.799805 1.69548 1.69524 0.800049 2.7998 0.800049H7.1998V1.60005H2.7998ZM9.47432 1.60005H14.3998V6.52553H13.5998V2.96573L6.36305 10.2025L5.79737 9.6368L13.0341 2.40005H9.47432V1.60005Z" fill="#222222"/>
</svg>
