<svg width="16" height="16" viewBox="0 0 16 16" fill="none" xmlns="http://www.w3.org/2000/svg">
<path d="M7.6896 0.5C3.44366 0.5 0 3.94302 0 8.1896C0 11.5871 2.20307 14.4694 5.25905 15.4864C5.64289 15.5575 5.7672 15.3191 5.7672 15.1167V13.6851C3.62821 14.1503 3.18285 12.7777 3.18285 12.7777C2.83298 11.8889 2.32867 11.6525 2.32867 11.6525C1.63084 11.1751 2.38185 11.1853 2.38185 11.1853C3.15402 11.2392 3.56029 11.978 3.56029 11.978C4.24594 13.1532 5.35901 12.8136 5.79796 12.6169C5.86653 12.1203 6.06581 11.7806 6.28625 11.589C4.57852 11.3936 2.783 10.7342 2.783 7.78846C2.783 6.94837 3.08353 6.26272 3.57502 5.72444C3.49556 5.53028 3.2322 4.74786 3.65 3.68926C3.65 3.68926 4.29592 3.48292 5.76528 4.47745C6.37852 4.30699 7.03599 4.22177 7.6896 4.21856C8.34322 4.22177 9.00132 4.30699 9.61585 4.47745C11.0839 3.48292 11.7286 3.68926 11.7286 3.68926C12.147 4.74851 11.8836 5.53092 11.8042 5.72444C12.2976 6.26272 12.5956 6.94901 12.5956 7.78846C12.5956 10.7419 10.7968 11.3923 9.08462 11.5826C9.36017 11.821 9.612 12.2888 9.612 13.0065V15.1167C9.612 15.3211 9.73504 15.5614 10.1253 15.4858C13.1787 14.4675 15.3792 11.5858 15.3792 8.1896C15.3792 3.94302 11.9362 0.5 7.6896 0.5Z" fill="black"/>
</svg>
