<svg width="33" height="33" viewBox="0 0 33 33" fill="none" xmlns="http://www.w3.org/2000/svg">
<path d="M16.5 0C7.38925 0 0 7.38788 0 16.5C0 23.7903 4.72725 29.975 11.2846 32.1571C12.1082 32.3098 12.375 31.7983 12.375 31.3638V28.292C7.78525 29.2903 6.82963 26.345 6.82963 26.345C6.07888 24.4379 4.99675 23.9305 4.99675 23.9305C3.49938 22.9061 5.11088 22.9281 5.11088 22.9281C6.76775 23.0436 7.6395 24.629 7.6395 24.629C9.11075 27.1508 11.4991 26.422 12.441 25.9999C12.5881 24.9343 13.0158 24.2055 13.4888 23.7944C9.82438 23.375 5.97162 21.9601 5.97162 15.6393C5.97162 13.8366 6.6165 12.3654 7.67112 11.2104C7.50063 10.7938 6.9355 9.11488 7.832 6.84338C7.832 6.84338 9.218 6.40063 12.3709 8.53463C13.6867 8.16888 15.0975 7.986 16.5 7.97913C17.9025 7.986 19.3146 8.16888 20.6332 8.53463C23.7834 6.40063 25.1666 6.84338 25.1666 6.84338C26.0645 9.11625 25.4994 10.7951 25.3289 11.2104C26.3876 12.3654 27.027 13.838 27.027 15.6393C27.027 21.9766 23.1674 23.3723 19.4934 23.7806C20.0846 24.2921 20.625 25.2959 20.625 26.8359V31.3638C20.625 31.8024 20.889 32.318 21.7264 32.1558C28.2782 29.9709 33 23.7875 33 16.5C33 7.38788 25.6121 0 16.5 0Z" fill="black"/>
</svg>
