<svg width="16" height="16" viewBox="0 0 16 16" fill="none" xmlns="http://www.w3.org/2000/svg">
<path d="M14.1203 0.799822H1.88029C1.30429 0.799822 0.800294 1.23397 0.800294 1.81286V14.1868C0.800294 14.7657 1.30429 15.1998 1.88029 15.1998H14.1203C14.6963 15.1998 15.2003 14.7657 15.2003 14.1868V1.81286C15.2003 1.30633 14.6963 0.799822 14.1203 0.799822ZM5.0483 13.1737H2.8883V6.2993H5.0483V13.1737ZM3.9683 5.28622C3.2483 5.28622 2.74429 4.70736 2.74429 4.0561C2.74429 3.40485 3.3203 2.82594 3.9683 2.82594C4.6163 2.82594 5.19229 3.40485 5.19229 4.0561C5.26429 4.77972 4.6883 5.28622 3.9683 5.28622ZM13.0403 13.1737H10.8803V9.84505C10.8803 9.04907 10.8803 8.036 9.80029 8.036C8.72029 8.036 8.5043 8.90435 8.5043 9.84505V13.246H6.3443V6.37165H8.36029V7.31239C8.64829 6.73349 9.36829 6.22696 10.3763 6.22696C12.5363 6.22696 12.9683 7.6742 12.9683 9.48324V13.1737H13.0403Z" fill="#0077B5"/>
</svg>
