<svg width="403" height="146" viewBox="0 0 403 146" fill="none" xmlns="http://www.w3.org/2000/svg">
<g filter="url(#filter0_ddd_132_276)">
<g clip-path="url(#clip0_132_276)">
<rect x="30" y="24" width="343" height="82" rx="8" fill="#242C32"/>
<rect x="46" y="49" width="32" height="32" rx="16" fill="#303746"/>
<mask id="mask0_132_276" style="mask-type:alpha" maskUnits="userSpaceOnUse" x="50" y="53" width="24" height="24">
<rect x="50" y="53" width="24" height="24" fill="#D9D9D9"/>
</mask>
<g mask="url(#mask0_132_276)">
<path d="M60.6 69.6L67.65 62.55L66.25 61.15L60.6 66.8L57.75 63.95L56.35 65.35L60.6 69.6ZM62 75C60.6167 75 59.3167 74.7373 58.1 74.212C56.8833 73.6873 55.825 72.975 54.925 72.075C54.025 71.175 53.3127 70.1167 52.788 68.9C52.2627 67.6833 52 66.3833 52 65C52 63.6167 52.2627 62.3167 52.788 61.1C53.3127 59.8833 54.025 58.825 54.925 57.925C55.825 57.025 56.8833 56.3123 58.1 55.787C59.3167 55.2623 60.6167 55 62 55C63.3833 55 64.6833 55.2623 65.9 55.787C67.1167 56.3123 68.175 57.025 69.075 57.925C69.975 58.825 70.6873 59.8833 71.212 61.1C71.7373 62.3167 72 63.6167 72 65C72 66.3833 71.7373 67.6833 71.212 68.9C70.6873 70.1167 69.975 71.175 69.075 72.075C68.175 72.975 67.1167 73.6873 65.9 74.212C64.6833 74.7373 63.3833 75 62 75Z" fill="#00DF80"/>
</g>
<path d="M108.569 41.066V53H105.662V45.843L102.993 53H100.647L97.961 45.826V53H95.054V41.066H98.488L101.837 49.328L105.152 41.066H108.569ZM119.193 48.104C119.193 48.376 119.176 48.6593 119.142 48.954H112.563C112.609 49.5433 112.796 49.9967 113.124 50.314C113.464 50.62 113.878 50.773 114.365 50.773C115.091 50.773 115.595 50.467 115.878 49.855H118.972C118.814 50.4783 118.525 51.0393 118.105 51.538C117.697 52.0367 117.182 52.4277 116.558 52.711C115.935 52.9943 115.238 53.136 114.467 53.136C113.538 53.136 112.711 52.9377 111.985 52.541C111.26 52.1443 110.693 51.5777 110.285 50.841C109.877 50.1043 109.673 49.243 109.673 48.257C109.673 47.271 109.872 46.4097 110.268 45.673C110.676 44.9363 111.243 44.3697 111.968 43.973C112.694 43.5763 113.527 43.378 114.467 43.378C115.385 43.378 116.201 43.5707 116.915 43.956C117.629 44.3413 118.185 44.891 118.581 45.605C118.989 46.319 119.193 47.152 119.193 48.104ZM116.218 47.339C116.218 46.8403 116.048 46.4437 115.708 46.149C115.368 45.8543 114.943 45.707 114.433 45.707C113.946 45.707 113.532 45.8487 113.192 46.132C112.864 46.4153 112.66 46.8177 112.58 47.339H116.218ZM126.099 43.412C127.21 43.412 128.094 43.7747 128.751 44.5C129.42 45.214 129.754 46.2 129.754 47.458V53H126.864V47.849C126.864 47.2143 126.7 46.7213 126.371 46.37C126.042 46.0187 125.6 45.843 125.045 45.843C124.49 45.843 124.048 46.0187 123.719 46.37C123.39 46.7213 123.226 47.2143 123.226 47.849V53H120.319V43.514H123.226V44.772C123.521 44.3527 123.917 44.024 124.416 43.786C124.915 43.5367 125.476 43.412 126.099 43.412ZM135.225 53.136C134.398 53.136 133.661 52.9943 133.015 52.711C132.369 52.4277 131.859 52.0423 131.485 51.555C131.111 51.0563 130.901 50.501 130.856 49.889H133.729C133.763 50.2177 133.916 50.484 134.188 50.688C134.46 50.892 134.794 50.994 135.191 50.994C135.554 50.994 135.831 50.926 136.024 50.79C136.228 50.6427 136.33 50.4557 136.33 50.229C136.33 49.957 136.188 49.7587 135.905 49.634C135.622 49.498 135.163 49.3507 134.528 49.192C133.848 49.0333 133.281 48.869 132.828 48.699C132.375 48.5177 131.984 48.24 131.655 47.866C131.326 47.4807 131.162 46.965 131.162 46.319C131.162 45.775 131.309 45.282 131.604 44.84C131.91 44.3867 132.352 44.0297 132.93 43.769C133.519 43.5083 134.216 43.378 135.021 43.378C136.211 43.378 137.146 43.6727 137.826 44.262C138.517 44.8513 138.914 45.6333 139.016 46.608H136.33C136.285 46.2793 136.137 46.0187 135.888 45.826C135.65 45.6333 135.333 45.537 134.936 45.537C134.596 45.537 134.335 45.605 134.154 45.741C133.973 45.8657 133.882 46.0413 133.882 46.268C133.882 46.54 134.024 46.744 134.307 46.88C134.602 47.016 135.055 47.152 135.667 47.288C136.37 47.4693 136.942 47.6507 137.384 47.832C137.826 48.002 138.211 48.2853 138.54 48.682C138.88 49.0673 139.056 49.5887 139.067 50.246C139.067 50.8013 138.908 51.3 138.591 51.742C138.285 52.1727 137.837 52.5127 137.248 52.762C136.67 53.0113 135.996 53.136 135.225 53.136ZM139.86 48.24C139.86 47.2653 140.041 46.4097 140.404 45.673C140.778 44.9363 141.282 44.3697 141.917 43.973C142.551 43.5763 143.26 43.378 144.042 43.378C144.71 43.378 145.294 43.514 145.793 43.786C146.303 44.058 146.694 44.415 146.966 44.857V43.514H149.873V53H146.966V51.657C146.682 52.099 146.286 52.456 145.776 52.728C145.277 53 144.693 53.136 144.025 53.136C143.254 53.136 142.551 52.9377 141.917 52.541C141.282 52.133 140.778 51.5607 140.404 50.824C140.041 50.076 139.86 49.2147 139.86 48.24ZM146.966 48.257C146.966 47.5317 146.762 46.9593 146.354 46.54C145.957 46.1207 145.47 45.911 144.892 45.911C144.314 45.911 143.821 46.1207 143.413 46.54C143.016 46.948 142.818 47.5147 142.818 48.24C142.818 48.9653 143.016 49.5433 143.413 49.974C143.821 50.3933 144.314 50.603 144.892 50.603C145.47 50.603 145.957 50.3933 146.354 49.974C146.762 49.5547 146.966 48.9823 146.966 48.257ZM155.172 43.378C155.84 43.378 156.424 43.514 156.923 43.786C157.433 44.058 157.824 44.415 158.096 44.857V43.514H161.003V52.983C161.003 53.8557 160.827 54.6433 160.476 55.346C160.136 56.06 159.609 56.6267 158.895 57.046C158.192 57.4653 157.314 57.675 156.26 57.675C154.854 57.675 153.715 57.3407 152.843 56.672C151.97 56.0147 151.471 55.1193 151.347 53.986H154.22C154.31 54.3487 154.526 54.632 154.866 54.836C155.206 55.0513 155.625 55.159 156.124 55.159C156.724 55.159 157.2 54.9833 157.552 54.632C157.914 54.292 158.096 53.7423 158.096 52.983V51.64C157.812 52.082 157.421 52.4447 156.923 52.728C156.424 53 155.84 53.136 155.172 53.136C154.39 53.136 153.681 52.9377 153.047 52.541C152.412 52.133 151.908 51.5607 151.534 50.824C151.171 50.076 150.99 49.2147 150.99 48.24C150.99 47.2653 151.171 46.4097 151.534 45.673C151.908 44.9363 152.412 44.3697 153.047 43.973C153.681 43.5763 154.39 43.378 155.172 43.378ZM158.096 48.257C158.096 47.5317 157.892 46.9593 157.484 46.54C157.087 46.1207 156.6 45.911 156.022 45.911C155.444 45.911 154.951 46.1207 154.543 46.54C154.146 46.948 153.948 47.5147 153.948 48.24C153.948 48.9653 154.146 49.5433 154.543 49.974C154.951 50.3933 155.444 50.603 156.022 50.603C156.6 50.603 157.087 50.3933 157.484 49.974C157.892 49.5547 158.096 48.9823 158.096 48.257ZM171.64 48.104C171.64 48.376 171.623 48.6593 171.589 48.954H165.01C165.055 49.5433 165.242 49.9967 165.571 50.314C165.911 50.62 166.324 50.773 166.812 50.773C167.537 50.773 168.041 50.467 168.325 49.855H171.419C171.26 50.4783 170.971 51.0393 170.552 51.538C170.144 52.0367 169.628 52.4277 169.005 52.711C168.381 52.9943 167.684 53.136 166.914 53.136C165.984 53.136 165.157 52.9377 164.432 52.541C163.706 52.1443 163.14 51.5777 162.732 50.841C162.324 50.1043 162.12 49.243 162.12 48.257C162.12 47.271 162.318 46.4097 162.715 45.673C163.123 44.9363 163.689 44.3697 164.415 43.973C165.14 43.5763 165.973 43.378 166.914 43.378C167.832 43.378 168.648 43.5707 169.362 43.956C170.076 44.3413 170.631 44.891 171.028 45.605C171.436 46.319 171.64 47.152 171.64 48.104ZM168.665 47.339C168.665 46.8403 168.495 46.4437 168.155 46.149C167.815 45.8543 167.39 45.707 166.88 45.707C166.392 45.707 165.979 45.8487 165.639 46.132C165.31 46.4153 165.106 46.8177 165.027 47.339H168.665ZM184.869 43.412C186.048 43.412 186.983 43.769 187.674 44.483C188.377 45.197 188.728 46.1887 188.728 47.458V53H185.838V47.849C185.838 47.237 185.674 46.7667 185.345 46.438C185.028 46.098 184.586 45.928 184.019 45.928C183.453 45.928 183.005 46.098 182.676 46.438C182.359 46.7667 182.2 47.237 182.2 47.849V53H179.31V47.849C179.31 47.237 179.146 46.7667 178.817 46.438C178.5 46.098 178.058 45.928 177.491 45.928C176.925 45.928 176.477 46.098 176.148 46.438C175.831 46.7667 175.672 47.237 175.672 47.849V53H172.765V43.514H175.672V44.704C175.967 44.3073 176.352 43.9957 176.828 43.769C177.304 43.531 177.843 43.412 178.443 43.412C179.157 43.412 179.792 43.565 180.347 43.871C180.914 44.177 181.356 44.6133 181.673 45.18C182.002 44.6587 182.45 44.2337 183.016 43.905C183.583 43.5763 184.201 43.412 184.869 43.412ZM202.49 48.104C202.49 48.376 202.473 48.6593 202.439 48.954H195.86C195.905 49.5433 196.092 49.9967 196.421 50.314C196.761 50.62 197.175 50.773 197.662 50.773C198.387 50.773 198.892 50.467 199.175 49.855H202.269C202.11 50.4783 201.821 51.0393 201.402 51.538C200.994 52.0367 200.478 52.4277 199.855 52.711C199.232 52.9943 198.535 53.136 197.764 53.136C196.835 53.136 196.007 52.9377 195.282 52.541C194.557 52.1443 193.99 51.5777 193.582 50.841C193.174 50.1043 192.97 49.243 192.97 48.257C192.97 47.271 193.168 46.4097 193.565 45.673C193.973 44.9363 194.54 44.3697 195.265 43.973C195.99 43.5763 196.823 43.378 197.764 43.378C198.682 43.378 199.498 43.5707 200.212 43.956C200.926 44.3413 201.481 44.891 201.878 45.605C202.286 46.319 202.49 47.152 202.49 48.104ZM199.515 47.339C199.515 46.8403 199.345 46.4437 199.005 46.149C198.665 45.8543 198.24 45.707 197.73 45.707C197.243 45.707 196.829 45.8487 196.489 46.132C196.16 46.4153 195.956 46.8177 195.877 47.339H199.515ZM209.396 43.412C210.506 43.412 211.39 43.7747 212.048 44.5C212.716 45.214 213.051 46.2 213.051 47.458V53H210.161V47.849C210.161 47.2143 209.996 46.7213 209.668 46.37C209.339 46.0187 208.897 45.843 208.342 45.843C207.786 45.843 207.344 46.0187 207.016 46.37C206.687 46.7213 206.523 47.2143 206.523 47.849V53H203.616V43.514H206.523V44.772C206.817 44.3527 207.214 44.024 207.713 43.786C208.211 43.5367 208.772 43.412 209.396 43.412ZM218.93 50.28L220.987 43.514H224.081L220.715 53H217.128L213.762 43.514H216.873L218.93 50.28ZM226.358 42.528C225.848 42.528 225.429 42.3807 225.1 42.086C224.783 41.78 224.624 41.406 224.624 40.964C224.624 40.5107 224.783 40.1367 225.1 39.842C225.429 39.536 225.848 39.383 226.358 39.383C226.857 39.383 227.265 39.536 227.582 39.842C227.911 40.1367 228.075 40.5107 228.075 40.964C228.075 41.406 227.911 41.78 227.582 42.086C227.265 42.3807 226.857 42.528 226.358 42.528ZM227.803 43.514V53H224.896V43.514H227.803ZM228.924 48.24C228.924 47.2653 229.105 46.4097 229.468 45.673C229.842 44.9363 230.346 44.3697 230.981 43.973C231.616 43.5763 232.324 43.378 233.106 43.378C233.775 43.378 234.358 43.514 234.857 43.786C235.367 44.058 235.758 44.415 236.03 44.857V43.514H238.937V53H236.03V51.657C235.747 52.099 235.35 52.456 234.84 52.728C234.341 53 233.758 53.136 233.089 53.136C232.318 53.136 231.616 52.9377 230.981 52.541C230.346 52.133 229.842 51.5607 229.468 50.824C229.105 50.076 228.924 49.2147 228.924 48.24ZM236.03 48.257C236.03 47.5317 235.826 46.9593 235.418 46.54C235.021 46.1207 234.534 45.911 233.956 45.911C233.378 45.911 232.885 46.1207 232.477 46.54C232.08 46.948 231.882 47.5147 231.882 48.24C231.882 48.9653 232.08 49.5433 232.477 49.974C232.885 50.3933 233.378 50.603 233.956 50.603C234.534 50.603 235.021 50.3933 235.418 49.974C235.826 49.5547 236.03 48.9823 236.03 48.257ZM240.054 48.24C240.054 47.2653 240.235 46.4097 240.598 45.673C240.972 44.9363 241.476 44.3697 242.111 43.973C242.746 43.5763 243.454 43.378 244.236 43.378C244.859 43.378 245.426 43.5083 245.936 43.769C246.457 44.0297 246.865 44.381 247.16 44.823V40.42H250.067V53H247.16V51.64C246.888 52.0933 246.497 52.456 245.987 52.728C245.488 53 244.905 53.136 244.236 53.136C243.454 53.136 242.746 52.9377 242.111 52.541C241.476 52.133 240.972 51.5607 240.598 50.824C240.235 50.076 240.054 49.2147 240.054 48.24ZM247.16 48.257C247.16 47.5317 246.956 46.9593 246.548 46.54C246.151 46.1207 245.664 45.911 245.086 45.911C244.508 45.911 244.015 46.1207 243.607 46.54C243.21 46.948 243.012 47.5147 243.012 48.24C243.012 48.9653 243.21 49.5433 243.607 49.974C244.015 50.3933 244.508 50.603 245.086 50.603C245.664 50.603 246.151 50.3933 246.548 49.974C246.956 49.5547 247.16 48.9823 247.16 48.257ZM251.184 48.24C251.184 47.2653 251.365 46.4097 251.728 45.673C252.102 44.9363 252.606 44.3697 253.241 43.973C253.876 43.5763 254.584 43.378 255.366 43.378C256.035 43.378 256.618 43.514 257.117 43.786C257.627 44.058 258.018 44.415 258.29 44.857V43.514H261.197V53H258.29V51.657C258.007 52.099 257.61 52.456 257.1 52.728C256.601 53 256.018 53.136 255.349 53.136C254.578 53.136 253.876 52.9377 253.241 52.541C252.606 52.133 252.102 51.5607 251.728 50.824C251.365 50.076 251.184 49.2147 251.184 48.24ZM258.29 48.257C258.29 47.5317 258.086 46.9593 257.678 46.54C257.281 46.1207 256.794 45.911 256.216 45.911C255.638 45.911 255.145 46.1207 254.737 46.54C254.34 46.948 254.142 47.5147 254.142 48.24C254.142 48.9653 254.34 49.5433 254.737 49.974C255.145 50.3933 255.638 50.603 256.216 50.603C256.794 50.603 257.281 50.3933 257.678 49.974C258.086 49.5547 258.29 48.9823 258.29 48.257ZM266.717 40.641L266.377 48.784H263.912L263.572 40.641H266.717ZM265.187 53.136C264.677 53.136 264.258 52.9887 263.929 52.694C263.612 52.388 263.453 52.014 263.453 51.572C263.453 51.1187 263.612 50.739 263.929 50.433C264.258 50.127 264.677 49.974 265.187 49.974C265.686 49.974 266.094 50.127 266.411 50.433C266.74 50.739 266.904 51.1187 266.904 51.572C266.904 52.014 266.74 52.388 266.411 52.694C266.094 52.9887 265.686 53.136 265.187 53.136Z" fill="white"/>
<path d="M97.874 72.091C97.276 72.091 96.7387 71.987 96.262 71.779C95.794 71.5623 95.4257 71.2677 95.157 70.895C94.8883 70.5137 94.7497 70.076 94.741 69.582H96.002C96.0453 70.0067 96.2187 70.3663 96.522 70.661C96.834 70.947 97.2847 71.09 97.874 71.09C98.4373 71.09 98.8793 70.9513 99.2 70.674C99.5293 70.388 99.694 70.024 99.694 69.582C99.694 69.2353 99.5987 68.9537 99.408 68.737C99.2173 68.5203 98.979 68.3557 98.693 68.243C98.407 68.1303 98.0213 68.009 97.536 67.879C96.938 67.723 96.457 67.567 96.093 67.411C95.7377 67.255 95.43 67.0123 95.17 66.683C94.9187 66.345 94.793 65.8943 94.793 65.331C94.793 64.837 94.9187 64.3993 95.17 64.018C95.4213 63.6367 95.7723 63.342 96.223 63.134C96.6823 62.926 97.2067 62.822 97.796 62.822C98.6453 62.822 99.3387 63.0343 99.876 63.459C100.422 63.8837 100.73 64.447 100.799 65.149H99.499C99.4557 64.8023 99.2737 64.499 98.953 64.239C98.6323 63.9703 98.2077 63.836 97.679 63.836C97.185 63.836 96.782 63.966 96.47 64.226C96.158 64.4773 96.002 64.8327 96.002 65.292C96.002 65.6213 96.093 65.89 96.275 66.098C96.4657 66.306 96.6953 66.4663 96.964 66.579C97.2413 66.683 97.627 66.8043 98.121 66.943C98.719 67.1077 99.2 67.2723 99.564 67.437C99.928 67.593 100.24 67.84 100.5 68.178C100.76 68.5073 100.89 68.958 100.89 69.53C100.89 69.972 100.773 70.388 100.539 70.778C100.305 71.168 99.9583 71.4843 99.499 71.727C99.0397 71.9697 98.498 72.091 97.874 72.091ZM108.871 64.876V72H107.688V70.947C107.463 71.311 107.146 71.597 106.739 71.805C106.34 72.0043 105.898 72.104 105.413 72.104C104.858 72.104 104.36 71.9913 103.918 71.766C103.476 71.532 103.125 71.1853 102.865 70.726C102.614 70.2667 102.488 69.7077 102.488 69.049V64.876H103.658V68.893C103.658 69.595 103.836 70.1367 104.191 70.518C104.546 70.8907 105.032 71.077 105.647 71.077C106.28 71.077 106.778 70.882 107.142 70.492C107.506 70.102 107.688 69.5343 107.688 68.789V64.876H108.871ZM110.348 68.412C110.348 67.684 110.496 67.047 110.79 66.501C111.085 65.9463 111.488 65.5173 111.999 65.214C112.519 64.9107 113.096 64.759 113.728 64.759C114.352 64.759 114.894 64.8933 115.353 65.162C115.813 65.4307 116.155 65.7687 116.38 66.176V64.876H117.576V72H116.38V70.674C116.146 71.09 115.795 71.4367 115.327 71.714C114.868 71.9827 114.331 72.117 113.715 72.117C113.083 72.117 112.511 71.961 111.999 71.649C111.488 71.337 111.085 70.8993 110.79 70.336C110.496 69.7727 110.348 69.1313 110.348 68.412ZM116.38 68.425C116.38 67.8877 116.272 67.4197 116.055 67.021C115.839 66.6223 115.544 66.319 115.171 66.111C114.807 65.8943 114.404 65.786 113.962 65.786C113.52 65.786 113.117 65.89 112.753 66.098C112.389 66.306 112.099 66.6093 111.882 67.008C111.666 67.4067 111.557 67.8747 111.557 68.412C111.557 68.958 111.666 69.4347 111.882 69.842C112.099 70.2407 112.389 70.5483 112.753 70.765C113.117 70.973 113.52 71.077 113.962 71.077C114.404 71.077 114.807 70.973 115.171 70.765C115.544 70.5483 115.839 70.2407 116.055 69.842C116.272 69.4347 116.38 68.9623 116.38 68.425ZM131.452 64.746C132.007 64.746 132.501 64.863 132.934 65.097C133.368 65.3223 133.71 65.6647 133.961 66.124C134.213 66.5833 134.338 67.1423 134.338 67.801V72H133.168V67.97C133.168 67.2593 132.991 66.7177 132.635 66.345C132.289 65.9637 131.816 65.773 131.218 65.773C130.603 65.773 130.113 65.9723 129.749 66.371C129.385 66.761 129.203 67.3287 129.203 68.074V72H128.033V67.97C128.033 67.2593 127.856 66.7177 127.5 66.345C127.154 65.9637 126.681 65.773 126.083 65.773C125.468 65.773 124.978 65.9723 124.614 66.371C124.25 66.761 124.068 67.3287 124.068 68.074V72H122.885V64.876H124.068V65.903C124.302 65.5303 124.614 65.2443 125.004 65.045C125.403 64.8457 125.841 64.746 126.317 64.746C126.915 64.746 127.444 64.8803 127.903 65.149C128.363 65.4177 128.705 65.812 128.93 66.332C129.13 65.8293 129.459 65.4393 129.918 65.162C130.378 64.8847 130.889 64.746 131.452 64.746ZM142.701 68.165C142.701 68.3903 142.688 68.6287 142.662 68.88H136.968C137.011 69.582 137.25 70.1323 137.683 70.531C138.125 70.921 138.658 71.116 139.282 71.116C139.793 71.116 140.218 70.999 140.556 70.765C140.903 70.5223 141.145 70.2017 141.284 69.803H142.558C142.367 70.4877 141.986 71.0467 141.414 71.48C140.842 71.9047 140.131 72.117 139.282 72.117C138.606 72.117 137.999 71.9653 137.462 71.662C136.933 71.3587 136.517 70.9297 136.214 70.375C135.911 69.8117 135.759 69.1617 135.759 68.425C135.759 67.6883 135.906 67.0427 136.201 66.488C136.496 65.9333 136.907 65.5087 137.436 65.214C137.973 64.9107 138.589 64.759 139.282 64.759C139.958 64.759 140.556 64.9063 141.076 65.201C141.596 65.4957 141.995 65.903 142.272 66.423C142.558 66.9343 142.701 67.515 142.701 68.165ZM141.479 67.918C141.479 67.4673 141.379 67.0817 141.18 66.761C140.981 66.4317 140.708 66.1847 140.361 66.02C140.023 65.8467 139.646 65.76 139.23 65.76C138.632 65.76 138.121 65.9507 137.696 66.332C137.28 66.7133 137.042 67.242 136.981 67.918H141.479ZM147.655 64.746C148.522 64.746 149.224 65.0103 149.761 65.539C150.299 66.059 150.567 66.813 150.567 67.801V72H149.397V67.97C149.397 67.2593 149.22 66.7177 148.864 66.345C148.509 65.9637 148.024 65.773 147.408 65.773C146.784 65.773 146.286 65.968 145.913 66.358C145.549 66.748 145.367 67.3157 145.367 68.061V72H144.184V64.876H145.367V65.89C145.601 65.526 145.918 65.2443 146.316 65.045C146.724 64.8457 147.17 64.746 147.655 64.746ZM154.944 72.117C154.398 72.117 153.908 72.026 153.475 71.844C153.041 71.6533 152.699 71.3933 152.448 71.064C152.196 70.726 152.058 70.3403 152.032 69.907H153.254C153.288 70.2623 153.453 70.5527 153.748 70.778C154.051 71.0033 154.445 71.116 154.931 71.116C155.381 71.116 155.737 71.0163 155.997 70.817C156.257 70.6177 156.387 70.3663 156.387 70.063C156.387 69.751 156.248 69.5213 155.971 69.374C155.693 69.218 155.264 69.0663 154.684 68.919C154.155 68.7803 153.722 68.6417 153.384 68.503C153.054 68.3557 152.768 68.1433 152.526 67.866C152.292 67.58 152.175 67.2073 152.175 66.748C152.175 66.384 152.283 66.0503 152.5 65.747C152.716 65.4437 153.024 65.2053 153.423 65.032C153.821 64.85 154.276 64.759 154.788 64.759C155.576 64.759 156.213 64.9583 156.699 65.357C157.184 65.7557 157.444 66.3017 157.479 66.995H156.296C156.27 66.6223 156.118 66.3233 155.841 66.098C155.572 65.8727 155.208 65.76 154.749 65.76C154.324 65.76 153.986 65.851 153.735 66.033C153.483 66.215 153.358 66.4533 153.358 66.748C153.358 66.982 153.431 67.177 153.579 67.333C153.735 67.4803 153.925 67.6017 154.151 67.697C154.385 67.7837 154.705 67.8833 155.113 67.996C155.624 68.1347 156.04 68.2733 156.361 68.412C156.681 68.542 156.954 68.7413 157.18 69.01C157.414 69.2787 157.535 69.6297 157.544 70.063C157.544 70.453 157.435 70.804 157.219 71.116C157.002 71.428 156.694 71.675 156.296 71.857C155.906 72.0303 155.455 72.117 154.944 72.117ZM158.694 68.412C158.694 67.684 158.841 67.047 159.136 66.501C159.43 65.9463 159.833 65.5173 160.345 65.214C160.865 64.9107 161.441 64.759 162.074 64.759C162.698 64.759 163.239 64.8933 163.699 65.162C164.158 65.4307 164.5 65.7687 164.726 66.176V64.876H165.922V72H164.726V70.674C164.492 71.09 164.141 71.4367 163.673 71.714C163.213 71.9827 162.676 72.117 162.061 72.117C161.428 72.117 160.856 71.961 160.345 71.649C159.833 71.337 159.43 70.8993 159.136 70.336C158.841 69.7727 158.694 69.1313 158.694 68.412ZM164.726 68.425C164.726 67.8877 164.617 67.4197 164.401 67.021C164.184 66.6223 163.889 66.319 163.517 66.111C163.153 65.8943 162.75 65.786 162.308 65.786C161.866 65.786 161.463 65.89 161.099 66.098C160.735 66.306 160.444 66.6093 160.228 67.008C160.011 67.4067 159.903 67.8747 159.903 68.412C159.903 68.958 160.011 69.4347 160.228 69.842C160.444 70.2407 160.735 70.5483 161.099 70.765C161.463 70.973 161.866 71.077 162.308 71.077C162.75 71.077 163.153 70.973 163.517 70.765C163.889 70.5483 164.184 70.2407 164.401 69.842C164.617 69.4347 164.726 68.9623 164.726 68.425ZM170.781 64.759C171.396 64.759 171.934 64.8933 172.393 65.162C172.861 65.4307 173.208 65.7687 173.433 66.176V64.876H174.629V72.156C174.629 72.806 174.49 73.3823 174.213 73.885C173.936 74.3963 173.537 74.795 173.017 75.081C172.506 75.367 171.908 75.51 171.223 75.51C170.287 75.51 169.507 75.289 168.883 74.847C168.259 74.405 167.891 73.8027 167.778 73.04H168.948C169.078 73.4733 169.347 73.82 169.754 74.08C170.161 74.3487 170.651 74.483 171.223 74.483C171.873 74.483 172.402 74.2793 172.809 73.872C173.225 73.4647 173.433 72.8927 173.433 72.156V70.661C173.199 71.077 172.852 71.4237 172.393 71.701C171.934 71.9783 171.396 72.117 170.781 72.117C170.148 72.117 169.572 71.961 169.052 71.649C168.541 71.337 168.138 70.8993 167.843 70.336C167.548 69.7727 167.401 69.1313 167.401 68.412C167.401 67.684 167.548 67.047 167.843 66.501C168.138 65.9463 168.541 65.5173 169.052 65.214C169.572 64.9107 170.148 64.759 170.781 64.759ZM173.433 68.425C173.433 67.8877 173.325 67.4197 173.108 67.021C172.891 66.6223 172.597 66.319 172.224 66.111C171.86 65.8943 171.457 65.786 171.015 65.786C170.573 65.786 170.17 65.89 169.806 66.098C169.442 66.306 169.152 66.6093 168.935 67.008C168.718 67.4067 168.61 67.8747 168.61 68.412C168.61 68.958 168.718 69.4347 168.935 69.842C169.152 70.2407 169.442 70.5483 169.806 70.765C170.17 70.973 170.573 71.077 171.015 71.077C171.457 71.077 171.86 70.973 172.224 70.765C172.597 70.5483 172.891 70.2407 173.108 69.842C173.325 69.4347 173.433 68.9623 173.433 68.425ZM183.05 68.165C183.05 68.3903 183.037 68.6287 183.011 68.88H177.317C177.36 69.582 177.599 70.1323 178.032 70.531C178.474 70.921 179.007 71.116 179.631 71.116C180.142 71.116 180.567 70.999 180.905 70.765C181.252 70.5223 181.494 70.2017 181.633 69.803H182.907C182.716 70.4877 182.335 71.0467 181.763 71.48C181.191 71.9047 180.48 72.117 179.631 72.117C178.955 72.117 178.348 71.9653 177.811 71.662C177.282 71.3587 176.866 70.9297 176.563 70.375C176.26 69.8117 176.108 69.1617 176.108 68.425C176.108 67.6883 176.255 67.0427 176.55 66.488C176.845 65.9333 177.256 65.5087 177.785 65.214C178.322 64.9107 178.938 64.759 179.631 64.759C180.307 64.759 180.905 64.9063 181.425 65.201C181.945 65.4957 182.344 65.903 182.621 66.423C182.907 66.9343 183.05 67.515 183.05 68.165ZM181.828 67.918C181.828 67.4673 181.728 67.0817 181.529 66.761C181.33 66.4317 181.057 66.1847 180.71 66.02C180.372 65.8467 179.995 65.76 179.579 65.76C178.981 65.76 178.47 65.9507 178.045 66.332C177.629 66.7133 177.391 67.242 177.33 67.918H181.828ZM193.101 64.746C193.655 64.746 194.149 64.863 194.583 65.097C195.016 65.3223 195.358 65.6647 195.61 66.124C195.861 66.5833 195.987 67.1423 195.987 67.801V72H194.817V67.97C194.817 67.2593 194.639 66.7177 194.284 66.345C193.937 65.9637 193.465 65.773 192.867 65.773C192.251 65.773 191.762 65.9723 191.398 66.371C191.034 66.761 190.852 67.3287 190.852 68.074V72H189.682V67.97C189.682 67.2593 189.504 66.7177 189.149 66.345C188.802 65.9637 188.33 65.773 187.732 65.773C187.116 65.773 186.627 65.9723 186.263 66.371C185.899 66.761 185.717 67.3287 185.717 68.074V72H184.534V64.876H185.717V65.903C185.951 65.5303 186.263 65.2443 186.653 65.045C187.051 64.8457 187.489 64.746 187.966 64.746C188.564 64.746 189.092 64.8803 189.552 65.149C190.011 65.4177 190.353 65.812 190.579 66.332C190.778 65.8293 191.107 65.4393 191.567 65.162C192.026 64.8847 192.537 64.746 193.101 64.746ZM204.136 65.851H202.641V72H201.458V65.851H200.535V64.876H201.458V64.369C201.458 63.5717 201.662 62.991 202.069 62.627C202.485 62.2543 203.148 62.068 204.058 62.068V63.056C203.538 63.056 203.17 63.16 202.953 63.368C202.745 63.5673 202.641 63.901 202.641 64.369V64.876H204.136V65.851ZM208.544 72.117C207.877 72.117 207.27 71.9653 206.724 71.662C206.187 71.3587 205.762 70.9297 205.45 70.375C205.147 69.8117 204.995 69.1617 204.995 68.425C204.995 67.697 205.151 67.0557 205.463 66.501C205.784 65.9377 206.217 65.5087 206.763 65.214C207.309 64.9107 207.92 64.759 208.596 64.759C209.272 64.759 209.883 64.9107 210.429 65.214C210.975 65.5087 211.404 65.9333 211.716 66.488C212.037 67.0427 212.197 67.6883 212.197 68.425C212.197 69.1617 212.033 69.8117 211.703 70.375C211.383 70.9297 210.945 71.3587 210.39 71.662C209.836 71.9653 209.22 72.117 208.544 72.117ZM208.544 71.077C208.969 71.077 209.368 70.9773 209.74 70.778C210.113 70.5787 210.412 70.2797 210.637 69.881C210.871 69.4823 210.988 68.997 210.988 68.425C210.988 67.853 210.876 67.3677 210.65 66.969C210.425 66.5703 210.13 66.2757 209.766 66.085C209.402 65.8857 209.008 65.786 208.583 65.786C208.15 65.786 207.751 65.8857 207.387 66.085C207.032 66.2757 206.746 66.5703 206.529 66.969C206.313 67.3677 206.204 67.853 206.204 68.425C206.204 69.0057 206.308 69.4953 206.516 69.894C206.733 70.2927 207.019 70.5917 207.374 70.791C207.73 70.9817 208.12 71.077 208.544 71.077ZM214.286 63.719C214.06 63.719 213.87 63.641 213.714 63.485C213.558 63.329 213.48 63.1383 213.48 62.913C213.48 62.6877 213.558 62.497 213.714 62.341C213.87 62.185 214.06 62.107 214.286 62.107C214.502 62.107 214.684 62.185 214.832 62.341C214.988 62.497 215.066 62.6877 215.066 62.913C215.066 63.1383 214.988 63.329 214.832 63.485C214.684 63.641 214.502 63.719 214.286 63.719ZM214.858 64.876V72H213.675V64.876H214.858ZM226.684 68.165C226.684 68.3903 226.671 68.6287 226.645 68.88H220.951C220.994 69.582 221.232 70.1323 221.666 70.531C222.108 70.921 222.641 71.116 223.265 71.116C223.776 71.116 224.201 70.999 224.539 70.765C224.885 70.5223 225.128 70.2017 225.267 69.803H226.541C226.35 70.4877 225.969 71.0467 225.397 71.48C224.825 71.9047 224.114 72.117 223.265 72.117C222.589 72.117 221.982 71.9653 221.445 71.662C220.916 71.3587 220.5 70.9297 220.197 70.375C219.893 69.8117 219.742 69.1617 219.742 68.425C219.742 67.6883 219.889 67.0427 220.184 66.488C220.478 65.9333 220.89 65.5087 221.419 65.214C221.956 64.9107 222.571 64.759 223.265 64.759C223.941 64.759 224.539 64.9063 225.059 65.201C225.579 65.4957 225.977 65.903 226.255 66.423C226.541 66.9343 226.684 67.515 226.684 68.165ZM225.462 67.918C225.462 67.4673 225.362 67.0817 225.163 66.761C224.963 66.4317 224.69 66.1847 224.344 66.02C224.006 65.8467 223.629 65.76 223.213 65.76C222.615 65.76 222.103 65.9507 221.679 66.332C221.263 66.7133 221.024 67.242 220.964 67.918H225.462ZM231.638 64.746C232.505 64.746 233.207 65.0103 233.744 65.539C234.282 66.059 234.55 66.813 234.55 67.801V72H233.38V67.97C233.38 67.2593 233.203 66.7177 232.847 66.345C232.492 65.9637 232.007 65.773 231.391 65.773C230.767 65.773 230.269 65.968 229.896 66.358C229.532 66.748 229.35 67.3157 229.35 68.061V72H228.167V64.876H229.35V65.89C229.584 65.526 229.901 65.2443 230.299 65.045C230.707 64.8457 231.153 64.746 231.638 64.746ZM239.057 70.908L241.267 64.876H242.528L239.733 72H238.355L235.56 64.876H236.834L239.057 70.908ZM244.225 63.719C244 63.719 243.809 63.641 243.653 63.485C243.497 63.329 243.419 63.1383 243.419 62.913C243.419 62.6877 243.497 62.497 243.653 62.341C243.809 62.185 244 62.107 244.225 62.107C244.442 62.107 244.624 62.185 244.771 62.341C244.927 62.497 245.005 62.6877 245.005 62.913C245.005 63.1383 244.927 63.329 244.771 63.485C244.624 63.641 244.442 63.719 244.225 63.719ZM244.797 64.876V72H243.614V64.876H244.797ZM246.293 68.412C246.293 67.684 246.44 67.047 246.735 66.501C247.03 65.9463 247.433 65.5173 247.944 65.214C248.464 64.9107 249.04 64.759 249.673 64.759C250.297 64.759 250.839 64.8933 251.298 65.162C251.757 65.4307 252.1 65.7687 252.325 66.176V64.876H253.521V72H252.325V70.674C252.091 71.09 251.74 71.4367 251.272 71.714C250.813 71.9827 250.275 72.117 249.66 72.117C249.027 72.117 248.455 71.961 247.944 71.649C247.433 71.337 247.03 70.8993 246.735 70.336C246.44 69.7727 246.293 69.1313 246.293 68.412ZM252.325 68.425C252.325 67.8877 252.217 67.4197 252 67.021C251.783 66.6223 251.489 66.319 251.116 66.111C250.752 65.8943 250.349 65.786 249.907 65.786C249.465 65.786 249.062 65.89 248.698 66.098C248.334 66.306 248.044 66.6093 247.827 67.008C247.61 67.4067 247.502 67.8747 247.502 68.412C247.502 68.958 247.61 69.4347 247.827 69.842C248.044 70.2407 248.334 70.5483 248.698 70.765C249.062 70.973 249.465 71.077 249.907 71.077C250.349 71.077 250.752 70.973 251.116 70.765C251.489 70.5483 251.783 70.2407 252 69.842C252.217 69.4347 252.325 68.9623 252.325 68.425ZM255 68.412C255 67.684 255.148 67.047 255.442 66.501C255.737 65.9463 256.14 65.5173 256.651 65.214C257.171 64.9107 257.752 64.759 258.393 64.759C258.948 64.759 259.464 64.889 259.94 65.149C260.417 65.4003 260.781 65.734 261.032 66.15V62.38H262.228V72H261.032V70.661C260.798 71.0857 260.452 71.4367 259.992 71.714C259.533 71.9827 258.996 72.117 258.38 72.117C257.748 72.117 257.171 71.961 256.651 71.649C256.14 71.337 255.737 70.8993 255.442 70.336C255.148 69.7727 255 69.1313 255 68.412ZM261.032 68.425C261.032 67.8877 260.924 67.4197 260.707 67.021C260.491 66.6223 260.196 66.319 259.823 66.111C259.459 65.8943 259.056 65.786 258.614 65.786C258.172 65.786 257.769 65.89 257.405 66.098C257.041 66.306 256.751 66.6093 256.534 67.008C256.318 67.4067 256.209 67.8747 256.209 68.412C256.209 68.958 256.318 69.4347 256.534 69.842C256.751 70.2407 257.041 70.5483 257.405 70.765C257.769 70.973 258.172 71.077 258.614 71.077C259.056 71.077 259.459 70.973 259.823 70.765C260.196 70.5483 260.491 70.2407 260.707 69.842C260.924 69.4347 261.032 68.9623 261.032 68.425ZM263.707 68.412C263.707 67.684 263.855 67.047 264.149 66.501C264.444 65.9463 264.847 65.5173 265.358 65.214C265.878 64.9107 266.455 64.759 267.087 64.759C267.711 64.759 268.253 64.8933 268.712 65.162C269.172 65.4307 269.514 65.7687 269.739 66.176V64.876H270.935V72H269.739V70.674C269.505 71.09 269.154 71.4367 268.686 71.714C268.227 71.9827 267.69 72.117 267.074 72.117C266.442 72.117 265.87 71.961 265.358 71.649C264.847 71.337 264.444 70.8993 264.149 70.336C263.855 69.7727 263.707 69.1313 263.707 68.412ZM269.739 68.425C269.739 67.8877 269.631 67.4197 269.414 67.021C269.198 66.6223 268.903 66.319 268.53 66.111C268.166 65.8943 267.763 65.786 267.321 65.786C266.879 65.786 266.476 65.89 266.112 66.098C265.748 66.306 265.458 66.6093 265.241 67.008C265.025 67.4067 264.916 67.8747 264.916 68.412C264.916 68.958 265.025 69.4347 265.241 69.842C265.458 70.2407 265.748 70.5483 266.112 70.765C266.476 70.973 266.879 71.077 267.321 71.077C267.763 71.077 268.166 70.973 268.53 70.765C268.903 70.5483 269.198 70.2407 269.414 69.842C269.631 69.4347 269.739 68.9623 269.739 68.425ZM275.802 68.425C275.802 67.6883 275.95 67.047 276.244 66.501C276.539 65.9463 276.946 65.5173 277.466 65.214C277.995 64.9107 278.597 64.759 279.273 64.759C280.149 64.759 280.868 64.9713 281.431 65.396C282.003 65.8207 282.38 66.41 282.562 67.164H281.288C281.167 66.7307 280.929 66.3883 280.573 66.137C280.227 65.8857 279.793 65.76 279.273 65.76C278.597 65.76 278.051 65.994 277.635 66.462C277.219 66.9213 277.011 67.5757 277.011 68.425C277.011 69.283 277.219 69.946 277.635 70.414C278.051 70.882 278.597 71.116 279.273 71.116C279.793 71.116 280.227 70.9947 280.573 70.752C280.92 70.5093 281.158 70.1627 281.288 69.712H282.562C282.372 70.44 281.99 71.025 281.418 71.467C280.846 71.9003 280.131 72.117 279.273 72.117C278.597 72.117 277.995 71.9653 277.466 71.662C276.946 71.3587 276.539 70.9297 276.244 70.375C275.95 69.8203 275.802 69.1703 275.802 68.425ZM287.17 72.117C286.503 72.117 285.896 71.9653 285.35 71.662C284.813 71.3587 284.388 70.9297 284.076 70.375C283.773 69.8117 283.621 69.1617 283.621 68.425C283.621 67.697 283.777 67.0557 284.089 66.501C284.41 65.9377 284.843 65.5087 285.389 65.214C285.935 64.9107 286.546 64.759 287.222 64.759C287.898 64.759 288.509 64.9107 289.055 65.214C289.601 65.5087 290.03 65.9333 290.342 66.488C290.663 67.0427 290.823 67.6883 290.823 68.425C290.823 69.1617 290.658 69.8117 290.329 70.375C290.008 70.9297 289.571 71.3587 289.016 71.662C288.461 71.9653 287.846 72.117 287.17 72.117ZM287.17 71.077C287.595 71.077 287.993 70.9773 288.366 70.778C288.739 70.5787 289.038 70.2797 289.263 69.881C289.497 69.4823 289.614 68.997 289.614 68.425C289.614 67.853 289.501 67.3677 289.276 66.969C289.051 66.5703 288.756 66.2757 288.392 66.085C288.028 65.8857 287.634 65.786 287.209 65.786C286.776 65.786 286.377 65.8857 286.013 66.085C285.658 66.2757 285.372 66.5703 285.155 66.969C284.938 67.3677 284.83 67.853 284.83 68.425C284.83 69.0057 284.934 69.4953 285.142 69.894C285.359 70.2927 285.645 70.5917 286 70.791C286.355 70.9817 286.745 71.077 287.17 71.077ZM300.867 64.746C301.422 64.746 301.916 64.863 302.349 65.097C302.783 65.3223 303.125 65.6647 303.376 66.124C303.628 66.5833 303.753 67.1423 303.753 67.801V72H302.583V67.97C302.583 67.2593 302.406 66.7177 302.05 66.345C301.704 65.9637 301.231 65.773 300.633 65.773C300.018 65.773 299.528 65.9723 299.164 66.371C298.8 66.761 298.618 67.3287 298.618 68.074V72H297.448V67.97C297.448 67.2593 297.271 66.7177 296.915 66.345C296.569 65.9637 296.096 65.773 295.498 65.773C294.883 65.773 294.393 65.9723 294.029 66.371C293.665 66.761 293.483 67.3287 293.483 68.074V72H292.3V64.876H293.483V65.903C293.717 65.5303 294.029 65.2443 294.419 65.045C294.818 64.8457 295.256 64.746 295.732 64.746C296.33 64.746 296.859 64.8803 297.318 65.149C297.778 65.4177 298.12 65.812 298.345 66.332C298.545 65.8293 298.874 65.4393 299.333 65.162C299.793 64.8847 300.304 64.746 300.867 64.746ZM97.523 90.117C96.977 90.117 96.4873 90.026 96.054 89.844C95.6207 89.6533 95.2783 89.3933 95.027 89.064C94.7757 88.726 94.637 88.3403 94.611 87.907H95.833C95.8677 88.2623 96.0323 88.5527 96.327 88.778C96.6303 89.0033 97.0247 89.116 97.51 89.116C97.9607 89.116 98.316 89.0163 98.576 88.817C98.836 88.6177 98.966 88.3663 98.966 88.063C98.966 87.751 98.8273 87.5213 98.55 87.374C98.2727 87.218 97.8437 87.0663 97.263 86.919C96.7343 86.7803 96.301 86.6417 95.963 86.503C95.6337 86.3557 95.3477 86.1433 95.105 85.866C94.871 85.58 94.754 85.2073 94.754 84.748C94.754 84.384 94.8623 84.0503 95.079 83.747C95.2957 83.4437 95.6033 83.2053 96.002 83.032C96.4007 82.85 96.8557 82.759 97.367 82.759C98.1557 82.759 98.7927 82.9583 99.278 83.357C99.7633 83.7557 100.023 84.3017 100.058 84.995H98.875C98.849 84.6223 98.6973 84.3233 98.42 84.098C98.1513 83.8727 97.7873 83.76 97.328 83.76C96.9033 83.76 96.5653 83.851 96.314 84.033C96.0627 84.215 95.937 84.4533 95.937 84.748C95.937 84.982 96.0107 85.177 96.158 85.333C96.314 85.4803 96.5047 85.6017 96.73 85.697C96.964 85.7837 97.2847 85.8833 97.692 85.996C98.2033 86.1347 98.6193 86.2733 98.94 86.412C99.2607 86.542 99.5337 86.7413 99.759 87.01C99.993 87.2787 100.114 87.6297 100.123 88.063C100.123 88.453 100.015 88.804 99.798 89.116C99.5813 89.428 99.2737 89.675 98.875 89.857C98.485 90.0303 98.0343 90.117 97.523 90.117ZM108.033 82.876V90H106.85V88.947C106.625 89.311 106.308 89.597 105.901 89.805C105.502 90.0043 105.06 90.104 104.575 90.104C104.02 90.104 103.522 89.9913 103.08 89.766C102.638 89.532 102.287 89.1853 102.027 88.726C101.776 88.2667 101.65 87.7077 101.65 87.049V82.876H102.82V86.893C102.82 87.595 102.998 88.1367 103.353 88.518C103.708 88.8907 104.194 89.077 104.809 89.077C105.442 89.077 105.94 88.882 106.304 88.492C106.668 88.102 106.85 87.5343 106.85 86.789V82.876H108.033ZM109.51 86.425C109.51 85.6883 109.658 85.047 109.952 84.501C110.247 83.9463 110.654 83.5173 111.174 83.214C111.703 82.9107 112.305 82.759 112.981 82.759C113.857 82.759 114.576 82.9713 115.139 83.396C115.711 83.8207 116.088 84.41 116.27 85.164H114.996C114.875 84.7307 114.637 84.3883 114.281 84.137C113.935 83.8857 113.501 83.76 112.981 83.76C112.305 83.76 111.759 83.994 111.343 84.462C110.927 84.9213 110.719 85.5757 110.719 86.425C110.719 87.283 110.927 87.946 111.343 88.414C111.759 88.882 112.305 89.116 112.981 89.116C113.501 89.116 113.935 88.9947 114.281 88.752C114.628 88.5093 114.866 88.1627 114.996 87.712H116.27C116.08 88.44 115.698 89.025 115.126 89.467C114.554 89.9003 113.839 90.117 112.981 90.117C112.305 90.117 111.703 89.9653 111.174 89.662C110.654 89.3587 110.247 88.9297 109.952 88.375C109.658 87.8203 109.51 87.1703 109.51 86.425ZM124.271 86.165C124.271 86.3903 124.258 86.6287 124.232 86.88H118.538C118.581 87.582 118.82 88.1323 119.253 88.531C119.695 88.921 120.228 89.116 120.852 89.116C121.363 89.116 121.788 88.999 122.126 88.765C122.473 88.5223 122.715 88.2017 122.854 87.803H124.128C123.937 88.4877 123.556 89.0467 122.984 89.48C122.412 89.9047 121.701 90.117 120.852 90.117C120.176 90.117 119.569 89.9653 119.032 89.662C118.503 89.3587 118.087 88.9297 117.784 88.375C117.481 87.8117 117.329 87.1617 117.329 86.425C117.329 85.6883 117.476 85.0427 117.771 84.488C118.066 83.9333 118.477 83.5087 119.006 83.214C119.543 82.9107 120.159 82.759 120.852 82.759C121.528 82.759 122.126 82.9063 122.646 83.201C123.166 83.4957 123.565 83.903 123.842 84.423C124.128 84.9343 124.271 85.515 124.271 86.165ZM123.049 85.918C123.049 85.4673 122.949 85.0817 122.75 84.761C122.551 84.4317 122.278 84.1847 121.931 84.02C121.593 83.8467 121.216 83.76 120.8 83.76C120.202 83.76 119.691 83.9507 119.266 84.332C118.85 84.7133 118.612 85.242 118.551 85.918H123.049ZM128.276 90.117C127.73 90.117 127.241 90.026 126.807 89.844C126.374 89.6533 126.032 89.3933 125.78 89.064C125.529 88.726 125.39 88.3403 125.364 87.907H126.586C126.621 88.2623 126.786 88.5527 127.08 88.778C127.384 89.0033 127.778 89.116 128.263 89.116C128.714 89.116 129.069 89.0163 129.329 88.817C129.589 88.6177 129.719 88.3663 129.719 88.063C129.719 87.751 129.581 87.5213 129.303 87.374C129.026 87.218 128.597 87.0663 128.016 86.919C127.488 86.7803 127.054 86.6417 126.716 86.503C126.387 86.3557 126.101 86.1433 125.858 85.866C125.624 85.58 125.507 85.2073 125.507 84.748C125.507 84.384 125.616 84.0503 125.832 83.747C126.049 83.4437 126.357 83.2053 126.755 83.032C127.154 82.85 127.609 82.759 128.12 82.759C128.909 82.759 129.546 82.9583 130.031 83.357C130.517 83.7557 130.777 84.3017 130.811 84.995H129.628C129.602 84.6223 129.451 84.3233 129.173 84.098C128.905 83.8727 128.541 83.76 128.081 83.76C127.657 83.76 127.319 83.851 127.067 84.033C126.816 84.215 126.69 84.4533 126.69 84.748C126.69 84.982 126.764 85.177 126.911 85.333C127.067 85.4803 127.258 85.6017 127.483 85.697C127.717 85.7837 128.038 85.8833 128.445 85.996C128.957 86.1347 129.373 86.2733 129.693 86.412C130.014 86.542 130.287 86.7413 130.512 87.01C130.746 87.2787 130.868 87.6297 130.876 88.063C130.876 88.453 130.768 88.804 130.551 89.116C130.335 89.428 130.027 89.675 129.628 89.857C129.238 90.0303 128.788 90.117 128.276 90.117ZM134.99 90.117C134.444 90.117 133.955 90.026 133.521 89.844C133.088 89.6533 132.746 89.3933 132.494 89.064C132.243 88.726 132.104 88.3403 132.078 87.907H133.3C133.335 88.2623 133.5 88.5527 133.794 88.778C134.098 89.0033 134.492 89.116 134.977 89.116C135.428 89.116 135.783 89.0163 136.043 88.817C136.303 88.6177 136.433 88.3663 136.433 88.063C136.433 87.751 136.295 87.5213 136.017 87.374C135.74 87.218 135.311 87.0663 134.73 86.919C134.202 86.7803 133.768 86.6417 133.43 86.503C133.101 86.3557 132.815 86.1433 132.572 85.866C132.338 85.58 132.221 85.2073 132.221 84.748C132.221 84.384 132.33 84.0503 132.546 83.747C132.763 83.4437 133.071 83.2053 133.469 83.032C133.868 82.85 134.323 82.759 134.834 82.759C135.623 82.759 136.26 82.9583 136.745 83.357C137.231 83.7557 137.491 84.3017 137.525 84.995H136.342C136.316 84.6223 136.165 84.3233 135.887 84.098C135.619 83.8727 135.255 83.76 134.795 83.76C134.371 83.76 134.033 83.851 133.781 84.033C133.53 84.215 133.404 84.4533 133.404 84.748C133.404 84.982 133.478 85.177 133.625 85.333C133.781 85.4803 133.972 85.6017 134.197 85.697C134.431 85.7837 134.752 85.8833 135.159 85.996C135.671 86.1347 136.087 86.2733 136.407 86.412C136.728 86.542 137.001 86.7413 137.226 87.01C137.46 87.2787 137.582 87.6297 137.59 88.063C137.59 88.453 137.482 88.804 137.265 89.116C137.049 89.428 136.741 89.675 136.342 89.857C135.952 90.0303 135.502 90.117 134.99 90.117ZM142.289 90.117C141.622 90.117 141.015 89.9653 140.469 89.662C139.932 89.3587 139.507 88.9297 139.195 88.375C138.892 87.8117 138.74 87.1617 138.74 86.425C138.74 85.697 138.896 85.0557 139.208 84.501C139.529 83.9377 139.962 83.5087 140.508 83.214C141.054 82.9107 141.665 82.759 142.341 82.759C143.017 82.759 143.628 82.9107 144.174 83.214C144.72 83.5087 145.149 83.9333 145.461 84.488C145.782 85.0427 145.942 85.6883 145.942 86.425C145.942 87.1617 145.778 87.8117 145.448 88.375C145.128 88.9297 144.69 89.3587 144.135 89.662C143.581 89.9653 142.965 90.117 142.289 90.117ZM142.289 89.077C142.714 89.077 143.113 88.9773 143.485 88.778C143.858 88.5787 144.157 88.2797 144.382 87.881C144.616 87.4823 144.733 86.997 144.733 86.425C144.733 85.853 144.621 85.3677 144.395 84.969C144.17 84.5703 143.875 84.2757 143.511 84.085C143.147 83.8857 142.753 83.786 142.328 83.786C141.895 83.786 141.496 83.8857 141.132 84.085C140.777 84.2757 140.491 84.5703 140.274 84.969C140.058 85.3677 139.949 85.853 139.949 86.425C139.949 87.0057 140.053 87.4953 140.261 87.894C140.478 88.2927 140.764 88.5917 141.119 88.791C141.475 88.9817 141.865 89.077 142.289 89.077ZM148.954 80.939L148.811 87.439H147.823L147.68 80.939H148.954ZM148.369 90.078C148.144 90.078 147.953 90 147.797 89.844C147.641 89.688 147.563 89.4973 147.563 89.272C147.563 89.0467 147.641 88.856 147.797 88.7C147.953 88.544 148.144 88.466 148.369 88.466C148.586 88.466 148.768 88.544 148.915 88.7C149.071 88.856 149.149 89.0467 149.149 89.272C149.149 89.4973 149.071 89.688 148.915 89.844C148.768 90 148.586 90.078 148.369 90.078Z" fill="#C8C5C5"/>
<circle cx="62" cy="65" r="106" fill="url(#paint0_radial_132_276)" fill-opacity="0.12"/>
<g filter="url(#filter1_f_132_276)">
<rect x="10" y="103" width="375" height="14" rx="7" fill="#01E17B"/>
</g>
<rect x="10" y="103" width="375" height="14" rx="7" fill="#01E17B"/>
</g>
</g>
<defs>
<filter id="filter0_ddd_132_276" x="0" y="0" width="403" height="146" filterUnits="userSpaceOnUse" color-interpolation-filters="sRGB">
<feFlood flood-opacity="0" result="BackgroundImageFix"/>
<feColorMatrix in="SourceAlpha" type="matrix" values="0 0 0 0 0 0 0 0 0 0 0 0 0 0 0 0 0 0 127 0" result="hardAlpha"/>
<feOffset dy="8"/>
<feGaussianBlur stdDeviation="5"/>
<feColorMatrix type="matrix" values="0 0 0 0 0 0 0 0 0 0 0 0 0 0 0 0 0 0 0.2 0"/>
<feBlend mode="normal" in2="BackgroundImageFix" result="effect1_dropShadow_132_276"/>
<feColorMatrix in="SourceAlpha" type="matrix" values="0 0 0 0 0 0 0 0 0 0 0 0 0 0 0 0 0 0 127 0" result="hardAlpha"/>
<feOffset dy="6"/>
<feGaussianBlur stdDeviation="15"/>
<feColorMatrix type="matrix" values="0 0 0 0 0 0 0 0 0 0 0 0 0 0 0 0 0 0 0.12 0"/>
<feBlend mode="normal" in2="effect1_dropShadow_132_276" result="effect2_dropShadow_132_276"/>
<feColorMatrix in="SourceAlpha" type="matrix" values="0 0 0 0 0 0 0 0 0 0 0 0 0 0 0 0 0 0 127 0" result="hardAlpha"/>
<feOffset dy="16"/>
<feGaussianBlur stdDeviation="12"/>
<feColorMatrix type="matrix" values="0 0 0 0 0 0 0 0 0 0 0 0 0 0 0 0 0 0 0.14 0"/>
<feBlend mode="normal" in2="effect2_dropShadow_132_276" result="effect3_dropShadow_132_276"/>
<feBlend mode="normal" in="SourceGraphic" in2="effect3_dropShadow_132_276" result="shape"/>
</filter>
<filter id="filter1_f_132_276" x="6" y="99" width="383" height="22" filterUnits="userSpaceOnUse" color-interpolation-filters="sRGB">
<feFlood flood-opacity="0" result="BackgroundImageFix"/>
<feBlend mode="normal" in="SourceGraphic" in2="BackgroundImageFix" result="shape"/>
<feGaussianBlur stdDeviation="2" result="effect1_foregroundBlur_132_276"/>
</filter>
<radialGradient id="paint0_radial_132_276" cx="0" cy="0" r="1" gradientUnits="userSpaceOnUse" gradientTransform="translate(62 65) rotate(90) scale(106)">
<stop stop-color="#00ED51"/>
<stop offset="1" stop-color="#00ED7B" stop-opacity="0"/>
</radialGradient>
<clipPath id="clip0_132_276">
<rect x="30" y="24" width="343" height="82" rx="8" fill="white"/>
</clipPath>
</defs>
</svg>
