<svg width="192" height="143" viewBox="0 0 192 143" fill="none" xmlns="http://www.w3.org/2000/svg">
<rect width="192" height="143" rx="8" fill="#05020D"/>
<mask id="mask0_226_351" style="mask-type:luminance" maskUnits="userSpaceOnUse" x="36" y="56" width="120" height="31">
<path d="M36 56H155.615V87H36V56Z" fill="white"/>
</mask>
<g mask="url(#mask0_226_351)">
<path fill-rule="evenodd" clip-rule="evenodd" d="M43.7486 76.0093V79.2437L36 71.4937L37.6156 69.8778L43.7486 76.008V76.0093ZM46.9824 79.2437H43.7486L51.4972 86.9937L53.1128 85.3778L46.9824 79.2437ZM65.3724 73.1121L66.9906 71.4937L51.4934 55.9937L49.8791 57.616L56.0095 63.7475H52.3057L48.0259 59.476L46.4103 61.0919L49.0706 63.754H47.211V75.7846H59.2394V73.9246L61.9011 76.5854L63.5167 74.9708L59.2394 70.6902V66.9832L65.3724 73.1121ZM44.5571 62.9415L42.935 64.56L44.6707 66.2947L46.2876 64.6775L44.5571 62.9415ZM58.3186 76.7055L56.7017 78.324L58.4361 80.06L60.0543 78.4415L58.3186 76.7055ZM41.087 66.4109L39.4688 68.032L43.7486 72.31V69.0731L41.0883 66.4122L41.087 66.4109ZM53.9251 79.2501H50.6888L54.9673 83.5307L56.5855 81.9122L53.9251 79.2501Z" fill="#FF6363"/>
<path d="M153.504 79.2242C152.461 79.2242 151.644 78.9413 151.063 78.373C150.479 77.8047 150.188 77.0168 150.188 76.0157V69.8157H148.315V67.4946H150.198L150.534 64.3946H152.738V67.4946H155.614V69.8196H152.738V75.6812C152.732 76.0005 152.85 76.3097 153.069 76.5427C153.181 76.6621 153.317 76.756 153.469 76.8179C153.62 76.8799 153.783 76.9085 153.947 76.9018H155.613V79.2255H153.504V79.2242ZM142.244 79.4438C140.853 79.4438 139.733 79.1118 138.886 78.4492C138.044 77.7906 137.467 76.8513 137.26 75.8026H140.028C140.148 76.2056 140.417 76.5479 140.779 76.761C141.224 77.0181 141.731 77.1433 142.244 77.1227C143.72 77.1227 144.461 76.7093 144.461 75.9124C144.461 75.5146 144.229 75.2097 143.765 75.0005C143.225 74.7702 142.661 74.6016 142.084 74.498C141.414 74.3701 140.751 74.208 140.098 74.0123C139.431 73.8154 138.839 73.4214 138.401 72.8821C137.941 72.3306 137.707 71.6073 137.707 70.7108C137.7 70.2388 137.801 69.7715 138.004 69.3451C138.207 68.9188 138.505 68.545 138.876 68.2528C139.659 67.6005 140.743 67.2737 142.13 67.275C143.517 67.275 144.61 67.585 145.436 68.2037C146.248 68.8188 146.807 69.7103 147.005 70.7096H144.234C143.94 69.972 143.24 69.6026 142.137 69.6026C140.953 69.6026 140.364 69.9733 140.364 70.7134C140.365 70.8832 140.412 71.0494 140.5 71.1948C140.588 71.3401 140.713 71.4594 140.862 71.5401C141.241 71.7726 141.663 71.9224 142.102 71.9857C142.652 72.0787 143.196 72.2053 143.729 72.3616C144.284 72.5205 144.827 72.7142 145.356 72.9441C145.872 73.1779 146.308 73.5577 146.61 74.0356C146.962 74.5975 147.136 75.2523 147.113 75.915C147.124 76.408 147.017 76.8965 146.801 77.3399C146.586 77.7834 146.267 78.169 145.873 78.4647C145.048 79.1157 143.838 79.4425 142.244 79.4438ZM133.994 68.4466C133.142 67.6806 131.946 67.297 130.413 67.297C129.186 67.297 128.16 67.6263 127.332 68.2864C126.509 68.9278 125.926 69.8286 125.679 70.8426H128.295C128.428 70.459 128.683 70.1283 129.018 69.9023C129.426 69.6275 129.911 69.4904 130.403 69.5109C131.019 69.4768 131.625 69.6734 132.104 70.0624C132.314 70.2586 132.479 70.4989 132.586 70.7662C132.694 71.0334 132.74 71.3211 132.723 71.6086V72.1717H129.74C128.357 72.1717 127.274 72.5153 126.494 73.2051C126.118 73.5262 125.818 73.9266 125.615 74.3775C125.413 74.8285 125.313 75.3187 125.322 75.8129C125.306 76.3031 125.395 76.7909 125.583 77.2438C125.771 77.6967 126.054 78.1042 126.412 78.4389C127.141 79.1286 128.104 79.4722 129.305 79.4722C130.049 79.4896 130.786 79.3185 131.446 78.9749C131.977 78.7166 132.426 78.3162 132.744 77.8176H132.851L133.058 79.2643H135.273V71.6176C135.274 70.2743 134.848 69.2177 133.994 68.4466ZM132.735 74.7137C132.751 75.0617 132.689 75.4087 132.555 75.7302C132.421 76.0517 132.218 76.3397 131.96 76.5737C131.448 77.0297 130.748 77.2583 129.859 77.2583C129.213 77.2583 128.716 77.1111 128.375 76.8191C128.209 76.6846 128.076 76.5138 127.987 76.3199C127.897 76.126 127.853 75.9141 127.859 75.7006C127.859 74.6672 128.534 74.1544 129.86 74.1544H132.735V74.7137ZM118.679 79.4696C117 79.4696 115.66 78.9297 114.654 77.8525C113.652 76.7752 113.145 75.2859 113.145 73.3807C113.145 71.4742 113.649 69.9914 114.649 68.9116C115.648 67.833 116.994 67.297 118.679 67.297C120.048 67.297 121.184 67.6612 122.085 68.3936C122.969 69.0979 123.598 70.0717 123.878 71.1668H121.341C121.092 70.6813 120.709 70.2775 120.237 70.0034C119.766 69.7293 119.225 69.5965 118.68 69.6207C118.267 69.606 117.856 69.6869 117.479 69.8572C117.102 70.0275 116.769 70.2825 116.507 70.6023C115.957 71.2598 115.68 72.1859 115.68 73.3794C115.68 74.5742 115.957 75.5016 116.507 76.1591C116.769 76.4798 117.101 76.7358 117.477 76.9069C117.854 77.0781 118.266 77.1599 118.679 77.1459C119.224 77.169 119.765 77.0352 120.236 76.7605C120.708 76.4858 121.091 76.0816 121.339 75.5959H123.878C123.598 76.6924 122.968 77.6674 122.083 78.373C121.187 79.1028 120.052 79.4696 118.679 79.4696ZM103.71 83.6831L105.481 79.2526L100.724 67.5217H103.492L106.702 75.8233H106.808L110.024 67.5217H112.79L106.365 83.6831H103.71ZM98.3338 68.4466C97.4815 67.6793 96.2869 67.297 94.7514 67.297C93.5258 67.297 92.4991 67.6263 91.67 68.2864C90.8504 68.9288 90.2723 69.8297 90.0299 70.8426H92.6437C92.7768 70.459 93.0299 70.1283 93.3669 69.9023C93.7752 69.6282 94.2601 69.4911 94.7514 69.5109C95.4694 69.5109 96.0376 69.6956 96.4509 70.0624C96.6621 70.2583 96.8272 70.4985 96.9344 70.7659C97.0416 71.0332 97.0882 71.321 97.0708 71.6086V72.1717H94.0747C92.698 72.1717 91.6158 72.5153 90.8293 73.2051C90.4528 73.5257 90.1521 73.926 89.9491 74.377C89.7461 74.828 89.6458 75.3184 89.6554 75.8129C89.641 76.3014 89.731 76.7874 89.9191 77.2384C90.1073 77.6894 90.3894 78.0951 90.7466 78.4286C91.4737 79.1183 92.4384 79.4619 93.6394 79.4619C94.3828 79.4793 95.1186 79.3082 95.7781 78.9646C96.3101 78.7063 96.7595 78.3058 97.0772 77.8073H97.1831L97.4027 79.2539H99.6136V71.6073C99.6136 70.2704 99.1875 69.2177 98.3351 68.4466H98.3338ZM97.0708 74.7137C97.0863 75.0617 97.0249 75.4087 96.8909 75.7302C96.757 76.0517 96.5538 76.3397 96.2959 76.5737C95.7845 77.0297 95.082 77.2583 94.1935 77.2583C93.5477 77.2583 93.0505 77.1111 92.7083 76.8191C92.5428 76.6843 92.4102 76.5135 92.3207 76.3196C92.2311 76.1258 92.187 75.914 92.1917 75.7006C92.2008 74.6724 92.8672 74.157 94.1935 74.1544H97.0708V74.7137ZM83.9795 73.3807C84.3747 73.2761 84.7556 73.1263 85.116 72.9338C85.537 72.7039 85.9309 72.4262 86.2899 72.1071C86.7238 71.7067 87.0583 71.212 87.2675 70.6605C87.518 70.0121 87.642 69.3223 87.633 68.6274C87.633 67.151 87.1616 65.9691 86.2201 65.0805C85.2774 64.1918 84.0505 63.7501 82.5421 63.7539H76.1211V79.2539H78.8886V73.5008H80.9872L84.9752 79.2501H88.0746L83.9808 73.3794L83.9795 73.3807ZM78.8886 71.048V66.1913H82.3161C83.1013 66.1913 83.7212 66.398 84.1758 66.8294C84.6304 67.2621 84.8615 67.8524 84.8615 68.6196C84.8615 69.3869 84.633 69.9862 84.1719 70.4138C83.6657 70.8529 83.0096 71.0816 82.3381 71.048H78.8886Z" fill="#E6E6E6"/>
</g>
</svg>
