<svg width="82" height="44" viewBox="0 0 82 44" fill="none" xmlns="http://www.w3.org/2000/svg">
<g clip-path="url(#clip0_186_238)">
<path fill-rule="evenodd" clip-rule="evenodd" d="M45.3357 17.709L44.6034 21.1557H46.0856C46.9306 21.1557 47.4833 21.117 47.7439 21.0395C48.4938 20.8177 48.955 20.2861 49.1275 19.4412C49.1662 19.2581 49.1873 19.0961 49.1873 18.9553C49.1873 18.4096 48.9233 18.047 48.3952 17.8639C48.0783 17.7618 47.5502 17.709 46.8144 17.709H45.3357ZM58.32 23.7927H62.1927L61.6188 17.9202H61.559L58.32 23.7927ZM30.5031 23.2364L29.7919 26.5916H31.9853C33.3443 26.5916 34.14 26.0424 34.3759 24.944C34.4146 24.775 34.4357 24.6165 34.4357 24.4722C34.4357 23.6484 33.8161 23.2364 32.5768 23.2364H30.5031ZM31.7072 17.5858L31.0347 20.7262H32.8937C33.5907 20.7262 34.066 20.6664 34.316 20.5502C34.8687 20.2756 35.2103 19.8179 35.344 19.1771C35.4637 18.6279 35.3687 18.2089 35.0659 17.9202C34.83 17.6984 34.4287 17.5858 33.8618 17.5858H31.7072ZM25.3841 29.1793L28.3942 15.0755H36.1151C36.3615 15.0966 36.5728 15.1213 36.7488 15.1495C37.6571 15.3184 38.3507 15.66 38.8225 16.1705C39.2555 16.6422 39.4738 17.209 39.4738 17.878C39.4738 18.1139 39.4456 18.3568 39.3963 18.6032C39.0407 20.2368 37.7944 21.3106 35.6609 21.8211L35.6398 21.8599C37.4987 22.2014 38.4282 23.078 38.4282 24.4898C38.4282 25.3805 38.1782 26.1868 37.6782 26.912C37.1783 27.6373 36.5094 28.1971 35.6715 28.5914C34.8335 28.9822 33.5062 29.1793 31.6896 29.1793H25.3841ZM0.137306 24.5989H4.04877C3.99596 24.8489 3.97132 25.0531 3.97132 25.2151C3.97132 26.1973 4.63321 26.6867 5.95698 26.6867C7.34412 26.6867 8.1574 26.1762 8.38976 25.1587C8.41441 25.0355 8.42849 24.9158 8.42849 24.8067C8.42849 24.3455 8.10459 24.0286 7.45327 23.8561L4.20368 23.0006C2.35885 22.5147 1.43996 21.5782 1.43996 20.1875C1.43996 19.9129 1.47164 19.6207 1.53853 19.3109C1.80963 18.1174 2.49264 17.1422 3.58405 16.3852C4.81628 15.5297 6.42171 15.1002 8.39328 15.1002C11.6922 15.1002 13.3398 16.1176 13.3398 18.1561C13.3398 18.4906 13.287 18.9025 13.1849 19.3848H9.22768C9.29106 19.1349 9.32626 18.9271 9.32626 18.7511C9.32626 17.9308 8.81929 17.5224 7.80885 17.5224C7.24907 17.5224 6.77025 17.6562 6.3689 17.9237C5.96754 18.1913 5.72814 18.5293 5.64716 18.9377C5.62252 19.0504 5.60843 19.156 5.60843 19.2546C5.60843 19.7651 5.99219 20.1171 6.75617 20.3178L9.22768 20.9691C10.305 21.2543 11.0584 21.5395 11.4844 21.8247C12.2132 22.2964 12.5758 22.9794 12.5758 23.8737C12.5758 24.1729 12.5371 24.4933 12.4597 24.8419C12.1463 26.2818 11.3119 27.3803 9.94942 28.1407C8.7031 28.8378 7.15401 29.1829 5.29509 29.1829C2.89399 29.1829 1.30969 28.6477 0.545704 27.581C0.183075 27.081 0 26.4719 0 25.7537C0 25.4545 0.0457687 25.0707 0.137306 24.5989ZM12.9842 29.1793L16.0085 15.1213H26.7219L26.148 17.8146H19.3496L18.7159 20.7438H25.12L24.5285 23.4371H18.1244L17.4907 26.4438H24.4476L23.8561 29.1758H12.9842V29.1793ZM68.2623 29.1793L71.2866 15.1213H82L81.4261 17.8146H74.6277L73.994 20.7438H80.3981L79.8066 23.4371H73.4025L72.7688 26.4438H79.7256L79.1342 29.1758H68.2623V29.1793ZM30.5594 4.79164H56.4646L57.4292 0H31.5206L30.5594 4.79164ZM28.9751 12.2308H54.8803L55.8449 7.43918H29.9398L28.9751 12.2308ZM23.7927 36.8826H49.6978L50.6625 32.0909H24.7574L23.7927 36.8826ZM22.2084 44.3218H48.1135L49.0782 39.5301H23.1731L22.2084 44.3218ZM51.3032 29.1793L59.9571 15.1882H64.7804L67.3892 29.1829H62.9215L62.5448 26.3734H56.8342L55.2534 29.1829L51.3032 29.1793H47.0151C46.9869 28.6583 47.0608 27.6021 47.2334 26.0037C47.2862 25.4439 47.3143 25.0637 47.3143 24.856C47.3143 24.4264 47.2052 24.1237 46.9869 23.9511C46.7686 23.7751 46.3461 23.6871 45.7124 23.6871H44.0507L42.8642 29.1793H38.8929L41.9171 15.1178H48.5184C49.6521 15.1178 50.402 15.1424 50.7716 15.1952C51.6659 15.3255 52.3066 15.6353 52.6904 16.1317C53.046 16.5718 53.2255 17.1246 53.2255 17.7864C53.2255 18.1244 53.1868 18.48 53.1058 18.8567C52.8418 20.0643 52.2151 20.9339 51.2293 21.4655C50.585 21.8141 49.807 22.057 48.8986 22.1873L48.8775 22.2647C49.9055 22.2894 50.6026 22.4936 50.9723 22.8668C51.2892 23.1801 51.4476 23.7047 51.4476 24.444C51.4476 24.6905 51.4265 25.113 51.3877 25.7115C51.2645 27.4507 51.2399 28.6055 51.3032 29.1793Z" fill="white"/>
</g>
<defs>
<clipPath id="clip0_186_238">
<rect width="82" height="44" fill="white"/>
</clipPath>
</defs>
</svg>
