<svg width="192" height="143" viewBox="0 0 192 143" fill="none" xmlns="http://www.w3.org/2000/svg">
<rect width="192" height="143" rx="8" fill="#005EB8"/>
<g clip-path="url(#clip0_188_282)">
<path fill-rule="evenodd" clip-rule="evenodd" d="M100.336 66.709L99.6034 70.1557H101.086C101.931 70.1557 102.483 70.117 102.744 70.0395C103.494 69.8177 103.955 69.2861 104.127 68.4412C104.166 68.2581 104.187 68.0961 104.187 67.9553C104.187 67.4096 103.923 67.047 103.395 66.8639C103.078 66.7618 102.55 66.709 101.814 66.709H100.336ZM113.32 72.7927H117.193L116.619 66.9202H116.559L113.32 72.7927ZM85.5031 72.2364L84.7919 75.5916H86.9853C88.3443 75.5916 89.14 75.0424 89.3759 73.944C89.4146 73.775 89.4357 73.6165 89.4357 73.4722C89.4357 72.6484 88.8161 72.2364 87.5768 72.2364H85.5031ZM86.7072 66.5858L86.0347 69.7262H87.8937C88.5907 69.7262 89.066 69.6664 89.316 69.5502C89.8687 69.2756 90.2103 68.8179 90.344 68.1771C90.4637 67.6279 90.3687 67.2089 90.0659 66.9202C89.83 66.6984 89.4287 66.5858 88.8618 66.5858H86.7072ZM80.3841 78.1793L83.3942 64.0755H91.1151C91.3615 64.0966 91.5728 64.1213 91.7488 64.1495C92.6571 64.3184 93.3507 64.66 93.8225 65.1705C94.2555 65.6422 94.4738 66.209 94.4738 66.878C94.4738 67.1139 94.4456 67.3568 94.3963 67.6032C94.0407 69.2368 92.7944 70.3106 90.6609 70.8211L90.6398 70.8599C92.4987 71.2014 93.4282 72.078 93.4282 73.4898C93.4282 74.3805 93.1782 75.1868 92.6782 75.912C92.1783 76.6373 91.5094 77.1971 90.6715 77.5914C89.8335 77.9822 88.5062 78.1793 86.6896 78.1793H80.3841ZM55.1373 73.5989H59.0488C58.996 73.8489 58.9713 74.0531 58.9713 74.2151C58.9713 75.1973 59.6332 75.6867 60.957 75.6867C62.3441 75.6867 63.1574 75.1762 63.3898 74.1587C63.4144 74.0355 63.4285 73.9158 63.4285 73.8067C63.4285 73.3455 63.1046 73.0286 62.4533 72.8561L59.2037 72.0006C57.3589 71.5147 56.44 70.5782 56.44 69.1875C56.44 68.9129 56.4716 68.6207 56.5385 68.3109C56.8096 67.1174 57.4926 66.1422 58.584 65.3852C59.8163 64.5297 61.4217 64.1002 63.3933 64.1002C66.6922 64.1002 68.3398 65.1176 68.3398 67.1561C68.3398 67.4906 68.287 67.9025 68.1849 68.3848H64.2277C64.2911 68.1349 64.3263 67.9271 64.3263 67.7511C64.3263 66.9308 63.8193 66.5224 62.8089 66.5224C62.2491 66.5224 61.7703 66.6562 61.3689 66.9237C60.9675 67.1913 60.7281 67.5293 60.6472 67.9377C60.6225 68.0504 60.6084 68.156 60.6084 68.2546C60.6084 68.7651 60.9922 69.1171 61.7562 69.3178L64.2277 69.9691C65.305 70.2543 66.0584 70.5395 66.4844 70.8247C67.2132 71.2964 67.5758 71.9794 67.5758 72.8737C67.5758 73.1729 67.5371 73.4933 67.4597 73.8419C67.1463 75.2818 66.3119 76.3803 64.9494 77.1407C63.7031 77.8378 62.154 78.1829 60.2951 78.1829C57.894 78.1829 56.3097 77.6477 55.5457 76.581C55.1831 76.081 55 75.4719 55 74.7537C55 74.4545 55.0458 74.0707 55.1373 73.5989ZM67.9842 78.1793L71.0085 64.1213H81.7219L81.148 66.8146H74.3496L73.7159 69.7438H80.12L79.5285 72.4371H73.1244L72.4907 75.4438H79.4476L78.8561 78.1758H67.9842V78.1793ZM123.262 78.1793L126.287 64.1213H137L136.426 66.8146H129.628L128.994 69.7438H135.398L134.807 72.4371H128.403L127.769 75.4438H134.726L134.134 78.1758H123.262V78.1793ZM85.5594 53.7916H111.465L112.429 49H86.5206L85.5594 53.7916ZM83.9751 61.2308H109.88L110.845 56.4392H84.9398L83.9751 61.2308ZM78.7927 85.8826H104.698L105.662 81.0909H79.7574L78.7927 85.8826ZM77.2084 93.3218H103.114L104.078 88.5301H78.1731L77.2084 93.3218ZM106.303 78.1793L114.957 64.1882H119.78L122.389 78.1829H117.921L117.545 75.3734H111.834L110.253 78.1829L106.303 78.1793H102.015C101.987 77.6583 102.061 76.6021 102.233 75.0037C102.286 74.4439 102.314 74.0637 102.314 73.856C102.314 73.4264 102.205 73.1237 101.987 72.9511C101.769 72.7751 101.346 72.6871 100.712 72.6871H99.0507L97.8642 78.1793H93.8929L96.9171 64.1178H103.518C104.652 64.1178 105.402 64.1424 105.772 64.1952C106.666 64.3255 107.307 64.6353 107.69 65.1317C108.046 65.5718 108.226 66.1246 108.226 66.7864C108.226 67.1244 108.187 67.48 108.106 67.8567C107.842 69.0643 107.215 69.9339 106.229 70.4655C105.585 70.8141 104.807 71.057 103.899 71.1873L103.878 71.2647C104.906 71.2894 105.603 71.4936 105.972 71.8668C106.289 72.1801 106.448 72.7047 106.448 73.444C106.448 73.6905 106.426 74.113 106.388 74.7115C106.265 76.4507 106.24 77.6055 106.303 78.1793Z" fill="white"/>
</g>
<defs>
<clipPath id="clip0_188_282">
<rect width="82" height="44" fill="white" transform="translate(55 49)"/>
</clipPath>
</defs>
</svg>
