<svg width="15" height="16" viewBox="0 0 15 16" fill="none" xmlns="http://www.w3.org/2000/svg">
<path d="M7.5 0.5C3.35988 0.5 0 3.85988 0 8C0 12.1401 3.35988 15.5 7.5 15.5C11.6401 15.5 15 12.1401 15 8C15 3.85988 11.6401 0.5 7.5 0.5Z" fill="#1ED760"/>
<path d="M12.2972 7.24724C12.14 7.24724 12.0432 7.20793 11.9071 7.1293C9.75388 5.84402 5.90408 5.53555 3.41214 6.23111C3.30327 6.26136 3.16718 6.30974 3.02202 6.30974C2.62283 6.30974 2.31738 5.99825 2.31738 5.59603C2.31738 5.18474 2.57142 4.95188 2.84359 4.87325C3.90811 4.56176 5.09964 4.41357 6.39702 4.41357C8.60468 4.41357 10.9182 4.87325 12.6087 5.85914C12.8446 5.99523 12.9988 6.18273 12.9988 6.54261C12.9988 6.9539 12.6662 7.24724 12.2972 7.24724ZM11.3597 9.55168C11.2025 9.55168 11.0966 9.48212 10.9877 9.42466C9.09762 8.30571 6.27908 7.85511 3.77202 8.53555C3.62686 8.57486 3.54823 8.61418 3.41214 8.61418C3.08855 8.61418 2.82545 8.35107 2.82545 8.02749C2.82545 7.7039 2.98271 7.48918 3.2942 7.40148C4.13492 7.16559 4.99379 6.99019 6.25186 6.99019C8.21456 6.99019 10.1107 7.47708 11.6047 8.3662C11.8496 8.51136 11.9464 8.69886 11.9464 8.96196C11.9434 9.28857 11.6894 9.55168 11.3597 9.55168ZM10.5462 11.5355C10.4192 11.5355 10.3406 11.4962 10.2226 11.4267C8.33553 10.2896 6.13996 10.2412 3.97162 10.6858C3.85367 10.716 3.69944 10.7644 3.61174 10.7644C3.31839 10.7644 3.13392 10.5315 3.13392 10.2866C3.13392 9.97507 3.31839 9.82688 3.54521 9.77849C6.02202 9.23111 8.55327 9.2795 10.7125 10.5708C10.897 10.6888 11.0059 10.7946 11.0059 11.0698C11.0059 11.345 10.7912 11.5355 10.5462 11.5355Z" fill="black"/>
</svg>
