<svg width="40" height="40" viewBox="0 0 40 40" fill="none" xmlns="http://www.w3.org/2000/svg">
<circle cx="20" cy="20" r="20" fill="#111A31"/>
<path fill-rule="evenodd" clip-rule="evenodd" d="M28.4881 16.4881V11.5119H23.5119L20 8L16.4881 11.5119H11.5119V16.4881L8 20L11.5119 23.5119V28.4881H16.4881L20 32L23.5119 28.4881H28.4881V23.5119L32 20L28.4881 16.4881ZM26.3657 22.6316V26.3663H22.631L19.9997 28.9976L17.3684 26.3663H13.6336V22.6316L11.0023 20.0003L13.6336 17.369V13.6342H17.3684L19.9997 11.0029L22.631 13.6342H26.3657V17.369L28.997 20.0003L26.3657 22.6316ZM25 19.9998C25 22.7582 22.7583 24.9998 20 24.9998V14.9998C22.7583 14.9998 25 17.2415 25 19.9998Z" fill="white"/>
</svg>
