<svg width="192" height="143" viewBox="0 0 192 143" fill="none" xmlns="http://www.w3.org/2000/svg">
<rect width="192" height="143" rx="8" fill="#F5F5F5"/>
<path d="M138.972 77.1229C136.619 77.1229 135.227 75.6915 135.227 73.2751C135.227 70.8586 136.647 69.3146 139 69.3146C141.201 69.3146 142.718 70.7516 142.718 73.2751C142.718 75.7985 141.326 77.1229 138.972 77.1229ZM142.56 66.5477V68.771C142.047 67.919 141.314 67.221 140.437 66.7502C139.561 66.2793 138.575 66.053 137.581 66.0951C133.371 66.0951 130.859 68.771 130.859 73.3038C130.859 77.8366 133.586 80.5572 137.423 80.5572C139.776 80.5572 141.355 79.7988 142.515 78.0825L142.453 80.0232H146.635V66.5485L142.56 66.5477ZM123.78 80.02H128.086V66.5485H123.78V80.02ZM125.918 58.7283C125.289 58.7063 124.675 58.9302 124.207 59.3526C123.739 59.7749 123.454 60.3626 123.412 60.9915C123.463 61.6245 123.751 62.2149 124.218 62.6454C124.685 63.0758 125.297 63.3148 125.932 63.3148C126.568 63.3148 127.179 63.0758 127.646 62.6454C128.113 62.2149 128.401 61.6245 128.453 60.9915C128.414 60.3565 128.125 59.7626 127.651 59.3389C127.176 58.9151 126.554 58.6957 125.918 58.7283ZM115.62 80.02H119.921V58.7283H115.62V80.02ZM104.401 77.1229C102.047 77.1229 100.655 75.6915 100.655 73.2751C100.655 70.8586 102.081 69.3146 104.435 69.3146C106.63 69.3146 108.147 70.7516 108.147 73.2751C108.147 75.7985 106.754 77.1229 104.401 77.1229ZM107.994 66.5477V68.771C107.479 67.919 106.745 67.2211 105.868 66.7503C104.991 66.2795 104.004 66.0532 103.009 66.0951C98.7999 66.0951 96.2932 68.771 96.2932 73.3038C96.2932 77.8366 99.0146 80.5572 102.846 80.5572C105.199 80.5572 106.806 79.7988 107.938 78.0825L107.881 80.0232H112.057V66.5485L107.994 66.5477ZM97.5657 59.9114L89.3311 80.0256H84.8406L76.6699 59.9114H81.9068L86.2097 72.4552C86.3343 72.8232 86.6735 74.0901 87.1374 76.2575C87.3177 74.9131 87.6188 73.5876 88.037 72.2971L92.3942 59.9114H97.5657Z" fill="black"/>
<path d="M62.1065 80.1108L65.7723 72.004H58.4909L62.1065 80.1108ZM72.9786 59.9168H59.7355L65.7899 72.02H72.9786V59.9168ZM72.9786 89V72.0255L64.5732 89H72.9786ZM54.8754 63.9004L51.1976 72.0144H58.4909L54.8754 63.9004ZM44 84.0944H57.2456L51.1912 72.004H44V84.0944ZM44 55H52.4078L44 72.004V55Z" fill="#004995"/>
</svg>
