<svg width="192" height="143" viewBox="0 0 192 143" fill="none" xmlns="http://www.w3.org/2000/svg">
<rect width="192" height="143" rx="8" fill="#EEF5F6"/>
<g clip-path="url(#clip0_188_256)">
<path d="M122.877 81.1861C122.877 83.1792 121.223 84.7944 119.18 84.7944C117.141 84.7944 115.49 83.1792 115.49 81.1861C115.49 79.1908 117.141 77.5778 119.18 77.5778C121.223 77.5778 122.877 79.1908 122.877 81.1861Z" fill="#E98138"/>
<path d="M115.874 75.4116H122.49V57.2061H115.874V75.4116Z" fill="#438BC7"/>
<path d="M84.9602 81.3172C84.2947 83.0567 82.5838 84.3037 80.579 84.3037C78.5115 84.3037 76.7356 82.9537 76.177 81.1347L67.7861 57.2063H74.7823C75.8389 60.5382 80.1995 74.3233 80.4497 75.6336H80.7362C80.9657 74.2942 85.3414 60.5326 86.4042 57.2063H93.4026" fill="#438BC7"/>
<path d="M103.895 57.2058V78.1091H113.028V84.3037H99.9712C98.2082 84.3037 96.7754 82.9056 96.7754 81.1868V57.2058" fill="#438BC7"/>
</g>
<defs>
<clipPath id="clip0_188_256">
<rect width="55.3333" height="28" fill="white" transform="translate(68 57)"/>
</clipPath>
</defs>
</svg>
