<svg width="56" height="28" viewBox="0 0 56 28" fill="none" xmlns="http://www.w3.org/2000/svg">
<g clip-path="url(#clip0_68_927)">
<path d="M54.877 24.1856C54.877 26.1787 53.2231 27.7939 51.1797 27.7939C49.1413 27.7939 47.4902 26.1787 47.4902 24.1856C47.4902 22.1903 49.1413 20.5773 51.1797 20.5773C53.2231 20.5773 54.877 22.1903 54.877 24.1856Z" fill="#E98138"/>
<path d="M47.874 18.4114H54.4901V0.205807H47.874V18.4114Z" fill="#438BC7"/>
<path d="M16.9602 24.317C16.2947 26.0565 14.5838 27.3035 12.579 27.3035C10.5115 27.3035 8.73557 25.9535 8.177 24.1345L-0.213867 0.206102H6.78225C7.83894 3.53794 12.1995 17.3231 12.4497 18.6333H12.7362C12.9657 17.294 17.3414 3.53234 18.4042 0.206102H25.4026" fill="#438BC7"/>
<path d="M35.8946 0.20578V21.1091H45.0282V27.3037H31.9712C30.2082 27.3037 28.7754 25.9056 28.7754 24.1868V0.20578" fill="#438BC7"/>
</g>
<defs>
<clipPath id="clip0_68_927">
<rect width="55.3333" height="28" fill="white"/>
</clipPath>
</defs>
</svg>
