<svg width="96" height="16" viewBox="0 0 96 16" fill="none" xmlns="http://www.w3.org/2000/svg">
<path d="M90.334 13.7323C90.334 12.4802 91.4675 11.4645 92.8616 11.4645C94.2578 11.4645 95.3899 12.4802 95.3899 13.7323C95.3899 14.9843 94.2578 16 92.8616 16C91.4675 16 90.334 14.9843 90.334 13.7323Z" fill="#86BC25"/>
<path d="M9.70388 7.72599C9.70388 6.28934 9.39487 5.2232 8.77543 4.52883C8.15599 3.83574 7.21757 3.48888 5.95519 3.48888H4.61306V12.2748H5.64048C7.0417 12.2748 8.06912 11.9011 8.72274 11.1537C9.37636 10.4064 9.70388 9.26356 9.70388 7.72599ZM14.4914 7.57651C14.4914 10.1936 13.7068 12.2103 12.1382 13.6259C10.5697 15.0427 8.3646 15.7505 5.52371 15.7505H0V0.0668716H5.90891C8.64869 0.0668716 10.7648 0.710773 12.2557 1.9973C13.7459 3.2851 14.4914 5.14399 14.4914 7.57651Z" fill="white"/>
<path d="M29.7891 15.7507H34.1836V0.000688553H29.7891V15.7507Z" fill="white"/>
<path d="M40.3557 9.87427C40.3557 10.8784 40.5016 11.6444 40.7936 12.1707C41.0862 12.6977 41.5768 12.9609 42.266 12.9609C42.9481 12.9609 43.4294 12.6977 43.7106 12.1707C43.9912 11.6444 44.1314 10.8784 44.1314 9.87427C44.1314 8.8752 43.989 8.12206 43.7049 7.61358C43.4194 7.10319 42.9331 6.84831 42.2432 6.84831C41.5689 6.84831 41.0862 7.10191 40.7936 7.60783C40.5016 8.11376 40.3557 8.86881 40.3557 9.87427ZM48.6042 9.87427C48.6042 11.7874 48.0453 13.2797 46.9246 14.3496C45.8046 15.4203 44.2361 15.9556 42.2211 15.9556C40.288 15.9556 38.7501 15.4081 37.6081 14.3132C36.4646 13.219 35.8936 11.7395 35.8936 9.87427C35.8936 7.96684 36.4532 6.48484 37.5739 5.42828C38.6946 4.37172 40.266 3.84344 42.2888 3.84344C43.5398 3.84344 44.6455 4.08809 45.6039 4.57677C46.5629 5.06608 47.3027 5.7662 47.8232 6.67839C48.3444 7.58995 48.6042 8.65545 48.6042 9.87427Z" fill="white"/>
<path d="M50.3486 15.7507H54.7431V4.05193H50.3486V15.7507Z" fill="white"/>
<path d="M50.3486 2.63623H54.7431V-6.4373e-05H50.3486V2.63623Z" fill="white"/>
<path d="M63.6489 12.7652C64.242 12.7652 64.949 12.6304 65.7735 12.3621V15.3057C65.1804 15.5388 64.6172 15.7062 64.0818 15.8052C63.5464 15.9055 62.9184 15.9553 62.1986 15.9553C60.7233 15.9553 59.6596 15.6232 59.0067 14.9588C58.3559 14.2945 58.0306 13.2743 58.0306 11.8984V7.07549H56.4912V4.05082H58.0306V1.06383L62.4585 0.372661V4.05082H65.2623V7.07549H62.4585V11.6294C62.4585 12.3864 62.8558 12.7652 63.6489 12.7652Z" fill="white"/>
<path d="M73.8203 12.7652C74.4134 12.7652 75.1197 12.6304 75.945 12.3621V15.3057C75.3533 15.5388 74.7887 15.7062 74.2532 15.8052C73.7171 15.9055 73.0905 15.9553 72.37 15.9553C70.8947 15.9553 69.831 15.6232 69.1795 14.9588C68.5273 14.2945 68.2019 13.2743 68.2019 11.8984V7.07549H66.6611V4.05082H68.2019V1.01848L72.6299 0.372661V4.05082H75.4352V7.07549H72.6299V11.6294C72.6299 12.3864 73.0272 12.7652 73.8203 12.7652Z" fill="white"/>
<path d="M81.4907 8.44911C81.5512 7.80904 81.7549 7.33953 82.103 7.03929C82.4526 6.7397 82.8848 6.59022 83.401 6.59022C83.9635 6.59022 84.4113 6.75886 84.7438 7.09679C85.0785 7.43407 85.2522 7.88442 85.2657 8.44911H81.4907ZM87.688 5.22257C86.6442 4.30334 85.1618 3.84405 83.2444 3.84405C81.2287 3.84405 79.6779 4.37169 78.5907 5.4289C77.5049 6.48546 76.9609 8.00132 76.9609 9.9771C76.9609 11.8903 77.5483 13.3659 78.7203 14.4014C79.893 15.4369 81.5398 15.9556 83.6602 15.9556C84.6791 15.9556 85.5555 15.893 86.2896 15.769C87.0194 15.6464 87.7264 15.4247 88.4121 15.1041L87.7371 12.4684C87.238 12.6505 86.7638 12.791 86.3167 12.8836C85.6702 13.0178 84.9603 13.0855 84.1885 13.0855C83.3405 13.0855 82.6719 12.8996 82.1821 12.5278C81.6922 12.156 81.4302 11.6424 81.401 10.989H89.2565V9.1933C89.2565 7.46473 88.7332 6.14115 87.688 5.22257Z" fill="white"/>
<path d="M20.3237 8.44911C20.3835 7.80904 20.5879 7.33953 20.936 7.03929C21.2849 6.7397 21.7171 6.59022 22.2347 6.59022C22.7958 6.59022 23.2436 6.75886 23.5769 7.09679C23.9108 7.43407 24.0852 7.88442 24.0995 8.44911H20.3237ZM26.5217 5.22257C25.4772 4.30334 23.9948 3.84405 22.0767 3.84405C20.061 3.84405 18.5102 4.37169 17.4244 5.4289C16.3379 6.48546 15.7939 8.00132 15.7939 9.9771C15.7939 11.8903 16.3806 13.3659 17.554 14.4014C18.726 15.4369 20.3728 15.9556 22.4932 15.9556C23.5121 15.9556 24.3885 15.893 25.1226 15.769C25.8524 15.6464 26.5594 15.4247 27.2451 15.1041L26.5701 12.4684C26.0717 12.6505 25.5975 12.791 25.1504 12.8836C24.5025 13.0178 23.7933 13.0855 23.0215 13.0855C22.1749 13.0855 21.5049 12.8996 21.0151 12.5278C20.5245 12.156 20.2639 11.6424 20.234 10.989H28.0895V9.1933C28.0895 7.46473 27.5669 6.14115 26.5217 5.22257Z" fill="white"/>
</svg>
