<svg width="33" height="33" viewBox="0 0 33 33" fill="none" xmlns="http://www.w3.org/2000/svg">
<path d="M29.9507 0H2.18014C1.60242 0.00157969 1.04881 0.23178 0.640295 0.640294C0.23178 1.04881 0.00157969 1.60242 0 2.18014L0 29.9953C0.00157969 30.573 0.23178 31.1266 0.640295 31.5351C1.04881 31.9436 1.60242 32.1738 2.18014 32.1754H29.9507C30.5284 32.1738 31.082 31.9436 31.4906 31.5351C31.8991 31.1266 32.1293 30.573 32.1309 29.9953V2.18014C32.1293 1.60242 31.8991 1.04881 31.4906 0.640294C31.082 0.23178 30.5284 0.00157969 29.9507 0V0ZM31.4139 29.9953C31.4109 30.3701 31.2607 30.7287 30.9957 30.9937C30.7307 31.2587 30.3721 31.4089 29.9973 31.4119H2.20143C1.82663 31.4089 1.46802 31.2587 1.20299 30.9937C0.937955 30.7287 0.787755 30.3701 0.784799 29.9953V2.18014C0.787755 1.80535 0.937955 1.44674 1.20299 1.1817C1.46802 0.916673 1.82663 0.766472 2.20143 0.763516H29.9727C30.3475 0.766472 30.7061 0.916673 30.9711 1.1817C31.2361 1.44674 31.3863 1.80535 31.3893 2.18014L31.4112 29.9953H31.4139Z" fill="white"/>
<path d="M31.4116 29.9947C31.4086 30.3695 31.2584 30.7281 30.9934 30.9931C30.7284 31.2582 30.3698 31.4084 29.995 31.4113H2.20178C1.82699 31.4084 1.46838 31.2582 1.20334 30.9931C0.938313 30.7281 0.788112 30.3695 0.785156 29.9947V2.17957C0.788112 1.80477 0.938313 1.44616 1.20334 1.18113C1.46838 0.916096 1.82699 0.765896 2.20178 0.762939H29.973C30.3478 0.765896 30.7064 0.916096 30.9715 1.18113C31.2365 1.44616 31.3867 1.80477 31.3897 2.17957L31.4116 29.994V29.9947Z" fill="#013E7D"/>
<path d="M19.7704 25.6496C20.0926 25.5455 20.3707 25.3366 20.5603 25.0561C20.7499 24.7756 20.8401 24.4397 20.8166 24.1019V23.9689C20.8006 23.7421 20.7386 23.521 20.6345 23.3188C20.5304 23.1167 20.3863 22.9379 20.211 22.7931C20.0357 22.6484 19.8327 22.5408 19.6145 22.4769C19.3964 22.4129 19.1675 22.394 18.9417 22.4213H16.3047V27.6967H17.5683V25.8019H18.4622L19.4432 27.698H20.8598L19.7704 25.6496ZM18.7243 24.9087H17.4819V23.361H18.7243C18.828 23.3455 18.934 23.3546 19.0336 23.3874C19.1332 23.4203 19.2237 23.476 19.2979 23.5502C19.3721 23.6244 19.4279 23.7149 19.4607 23.8146C19.4936 23.9142 19.5026 24.0201 19.4871 24.1239C19.531 24.6466 19.2477 24.908 18.7243 24.908V24.9087Z" fill="white"/>
<path d="M9.56684 22.4456H8.15021L7.25634 24.7561L6.27534 23.0561C6.15569 22.8864 5.99969 22.7455 5.81871 22.6437C5.63774 22.5419 5.43634 22.4817 5.22917 22.4675H4.51221L6.69235 26.2824L6.1257 27.7649H6.88855C7.08494 27.7555 7.27477 27.6913 7.43661 27.5796C7.59844 27.468 7.72583 27.3133 7.80437 27.1331L9.56684 22.4456Z" fill="white"/>
<path d="M13.3627 25.4101H11.5749L12.3378 23.4262C12.4249 23.208 12.5559 23.208 12.6211 23.4262L13.3627 25.4101ZM13.6899 26.3259L14.2346 27.7426H15.5648L13.799 23.0996C13.7179 22.9212 13.5899 22.7682 13.4286 22.6569C13.2672 22.5456 13.0787 22.4802 12.8832 22.4678H11.3355L9.35156 27.7426H10.0053C10.2017 27.7331 10.3916 27.669 10.5534 27.5573C10.7152 27.4457 10.8426 27.291 10.9212 27.1107L11.2045 26.3479H13.6892V26.3246L13.6899 26.3259Z" fill="white"/>
<path d="M24.1747 23.4482C24.2618 23.23 24.3928 23.23 24.458 23.4482L25.2209 25.4321H23.4331L24.1747 23.4482ZM23.1066 26.3253H25.5674L25.8507 27.0882C25.9293 27.2684 26.0566 27.4231 26.2185 27.5348C26.3803 27.6464 26.5701 27.7106 26.7665 27.72H27.4203L25.3931 22.4446H23.8674C23.671 22.454 23.4812 22.5182 23.3194 22.6298C23.1575 22.7415 23.0302 22.8962 22.9516 23.0764L21.1885 27.7207H22.5186L23.1072 26.324L23.1066 26.3253Z" fill="white"/>
<path d="M20.5772 13.3413C20.696 13.3831 20.8225 13.3981 20.9477 13.3852H23.2801C22.1029 12.3391 21.384 9.74524 21.384 8.19759C21.384 6.60605 22.1036 4.03417 23.2801 3.00994H20.9457C20.8205 2.99877 20.6943 3.01372 20.5752 3.05384C19.2538 4.44236 18.507 6.2796 18.4849 8.19626C18.5069 10.1141 19.2545 11.9525 20.5772 13.3413Z" fill="white"/>
<path d="M15.5421 13.3413C15.6608 13.3831 15.7873 13.3981 15.9125 13.3852H18.223C17.0458 12.3391 16.3269 9.74524 16.3269 8.19759C16.3269 6.60605 17.0897 4.03417 18.223 3.00994H15.9105C15.7853 2.99877 15.6592 3.01372 15.5401 3.05384C14.2297 4.44946 13.4847 6.28221 13.4497 8.19626C13.5066 10.1069 14.2494 11.9333 15.5421 13.3413Z" fill="white"/>
<path d="M10.5504 13.3412C10.6618 13.3815 10.7809 13.3965 10.8989 13.3851H13.2313C12.0541 12.3389 11.3352 9.74506 11.3352 8.19741C11.3352 6.60587 12.0548 4.03399 13.2313 3.00976H10.8995C10.7815 2.99658 10.6621 3.01162 10.551 3.05365C9.22866 4.44177 8.48087 6.27906 8.45801 8.19608C8.48002 10.1139 9.22762 11.9523 10.5504 13.3412Z" fill="white"/>
<path d="M26.9422 17.4825C26.5341 16.7148 26.1773 15.9209 25.8741 15.1061C25.8201 14.9928 25.7943 14.8681 25.7989 14.7426C25.8034 14.6171 25.8382 14.4946 25.9002 14.3855C25.9622 14.2763 26.0497 14.1837 26.1551 14.1156C26.2605 14.0475 26.3809 14.0058 26.5059 13.9941C26.6965 13.9722 26.8732 13.8836 27.0049 13.744C27.1366 13.6044 27.2147 13.4228 27.2255 13.2313V12.7544C27.2237 12.7197 27.2092 12.6869 27.1846 12.6623C27.16 12.6377 27.1272 12.6231 27.0925 12.6214H25.4597C25.1029 12.6712 24.7799 12.8589 24.5599 13.1441C24.3398 13.4293 24.2402 13.7893 24.2825 14.1471C24.2386 16.5234 24.2825 16.8074 23.6507 16.9404C23.6279 16.9393 23.6064 16.9298 23.5903 16.9137C23.5742 16.8976 23.5647 16.8761 23.5636 16.8533V16.7868C23.5654 16.4857 23.5075 16.1873 23.3931 15.9088C23.2788 15.6303 23.1103 15.3773 22.8974 15.1644C22.6845 14.9515 22.4315 14.783 22.153 14.6687C21.8745 14.5543 21.5761 14.4964 21.275 14.4982C20.9728 14.4984 20.6738 14.5604 20.3965 14.6804C20.1191 14.8004 19.8692 14.9758 19.6622 15.1959C19.6622 15.2398 19.5957 15.2624 19.575 15.2624C19.5555 15.2614 19.5367 15.2545 19.5212 15.2426C19.5057 15.2308 19.4941 15.2145 19.4879 15.1959C19.2782 14.9793 19.0277 14.8062 18.751 14.6865C18.4742 14.5668 18.1766 14.5028 17.8751 14.4982C17.5729 14.4984 17.2739 14.5604 16.9966 14.6804C16.7192 14.8004 16.4693 14.9758 16.2623 15.1959C16.2623 15.2398 16.1958 15.2624 16.1751 15.2624C16.1556 15.2614 16.1368 15.2545 16.1213 15.2426C16.1057 15.2308 16.0941 15.2145 16.088 15.1959C15.8779 14.9784 15.6268 14.8046 15.3492 14.6845C15.0716 14.5644 14.773 14.5004 14.4705 14.4963C14.1683 14.4964 13.8694 14.5584 13.592 14.6784C13.3146 14.7984 13.0648 14.9738 12.8577 15.1939C12.8577 15.2378 12.7912 15.2604 12.7706 15.2604C12.751 15.2594 12.7323 15.2525 12.7167 15.2406C12.7012 15.2288 12.6896 15.2125 12.6834 15.1939C12.3689 14.8672 11.9635 14.6423 11.5198 14.5484C11.076 14.4546 10.6143 14.496 10.1944 14.6673C9.77442 14.8386 9.41552 15.132 9.1641 15.5095C8.91267 15.887 8.78029 16.3313 8.78406 16.7848V16.8513C8.78406 16.9178 8.71755 16.9384 8.65105 16.9384C8.01922 16.8513 8.06245 16.5241 8.01922 14.1451C8.06147 13.7874 7.9619 13.4273 7.74185 13.1421C7.5218 12.8569 7.19877 12.6693 6.84202 12.6194H5.14406C5.10935 12.6212 5.07654 12.6357 5.05196 12.6603C5.02739 12.6849 5.01281 12.7177 5.01104 12.7524V13.2319C5.01476 13.4258 5.09052 13.6113 5.22355 13.7523C5.35659 13.8933 5.53737 13.9798 5.73066 13.9948C5.85594 14.0059 5.97665 14.0472 6.08245 14.1152C6.18825 14.1832 6.27597 14.2758 6.3381 14.3852C6.40023 14.4945 6.43491 14.6173 6.43915 14.743C6.4434 14.8687 6.4171 14.9935 6.36249 15.1068C6.05512 15.9199 5.69841 16.7135 5.29437 17.4831C5.06045 17.9047 4.94138 18.3803 4.94908 18.8624C4.95679 19.3445 5.09099 19.8161 5.33826 20.2299C5.75261 20.8837 6.25408 21.4723 8.01922 21.4723H24.3703C26.1361 21.5162 26.6589 20.9057 27.0513 20.2299C27.2452 19.7943 27.3363 19.3199 27.3174 18.8435C27.2985 18.367 27.1701 17.9013 26.9422 17.4825ZM10.8984 18.1143C10.6311 18.1143 10.3698 18.035 10.1475 17.8865C9.92529 17.738 9.75207 17.527 9.64979 17.28C9.5475 17.0331 9.52073 16.7614 9.57288 16.4992C9.62503 16.237 9.75374 15.9962 9.94274 15.8072C10.1317 15.6182 10.3726 15.4895 10.6347 15.4374C10.8969 15.3852 11.1686 15.412 11.4155 15.5143C11.6625 15.6166 11.8736 15.7898 12.0221 16.012C12.1706 16.2343 12.2498 16.4956 12.2498 16.7629C12.2481 17.1207 12.1051 17.4635 11.8521 17.7165C11.599 17.9696 11.2563 18.1126 10.8984 18.1143ZM14.3428 18.1143C14.0755 18.1143 13.8143 18.035 13.592 17.8865C13.3698 17.738 13.1965 17.527 13.0943 17.28C12.992 17.0331 12.9652 16.7614 13.0173 16.4992C13.0695 16.237 13.1982 15.9962 13.3872 15.8072C13.5762 15.6182 13.817 15.4895 14.0792 15.4374C14.3413 15.3852 14.6131 15.412 14.86 15.5143C15.107 15.6166 15.318 15.7898 15.4665 16.012C15.615 16.2343 15.6943 16.4956 15.6943 16.7629C15.6953 16.9406 15.661 17.1168 15.5934 17.2812C15.5258 17.4456 15.4263 17.595 15.3006 17.7206C15.1749 17.8463 15.0256 17.9458 14.8612 18.0134C14.6968 18.081 14.5206 18.1153 14.3428 18.1143ZM17.7873 18.1143C17.52 18.1143 17.2587 18.035 17.0365 17.8865C16.8142 17.738 16.641 17.527 16.5387 17.28C16.4364 17.0331 16.4097 16.7614 16.4618 16.4992C16.514 16.237 16.6427 15.9962 16.8317 15.8072C17.0207 15.6182 17.2615 15.4895 17.5236 15.4374C17.7858 15.3852 18.0575 15.412 18.3045 15.5143C18.5514 15.6166 18.7625 15.7898 18.911 16.012C19.0595 16.2343 19.1388 16.4956 19.1388 16.7629C19.1397 16.9407 19.1054 17.1169 19.0378 17.2813C18.9702 17.4458 18.8706 17.5952 18.7449 17.7209C18.6191 17.8466 18.4696 17.9461 18.3052 18.0136C18.1407 18.0811 17.9644 18.1154 17.7866 18.1143H17.7873ZM21.2531 18.1143C20.9858 18.1143 20.7245 18.035 20.5022 17.8865C20.28 17.738 20.1068 17.527 20.0045 17.28C19.9022 17.0331 19.8754 16.7614 19.9276 16.4992C19.9797 16.237 20.1084 15.9962 20.2974 15.8072C20.4864 15.6182 20.7272 15.4895 20.9894 15.4374C21.2516 15.3852 21.5233 15.412 21.7702 15.5143C22.0172 15.6166 22.2282 15.7898 22.3767 16.012C22.5252 16.2343 22.6045 16.4956 22.6045 16.7629C22.6074 16.941 22.5744 17.1179 22.5076 17.2831C22.4408 17.4483 22.3415 17.5983 22.2155 17.7244C22.0896 17.8505 21.9396 17.9499 21.7745 18.0169C21.6094 18.0839 21.4325 18.117 21.2544 18.1143H21.2531Z" fill="white"/>
</svg>
