<svg width="192" height="143" viewBox="0 0 192 143" fill="none" xmlns="http://www.w3.org/2000/svg">
<rect width="192" height="143" rx="8" fill="#013E7D"/>
<path d="M118.027 46H73.4959C72.5695 46.0025 71.6818 46.3717 71.0267 47.0267C70.3717 47.6818 70.0025 48.5695 70 49.4959V94.098C70.0025 95.0244 70.3717 95.9121 71.0267 96.5672C71.6818 97.2222 72.5695 97.5914 73.4959 97.5939H118.027C118.953 97.5914 119.841 97.2222 120.496 96.5672C121.151 95.9121 121.52 95.0244 121.522 94.098V49.4959C121.52 48.5695 121.151 47.6818 120.496 47.0267C119.841 46.3717 118.953 46.0025 118.027 46V46ZM120.373 94.098C120.368 94.699 120.127 95.274 119.702 95.699C119.277 96.124 118.702 96.3649 118.101 96.3696H73.53C72.929 96.3649 72.354 96.124 71.929 95.699C71.504 95.274 71.2632 94.699 71.2584 94.098V49.4959C71.2632 48.8949 71.504 48.3199 71.929 47.8949C72.354 47.4699 72.929 47.2291 73.53 47.2243H118.062C118.663 47.2291 119.238 47.4699 119.663 47.8949C120.088 48.3199 120.329 48.8949 120.333 49.4959L120.369 94.098H120.373Z" fill="white"/>
<path d="M120.369 94.0978C120.364 94.6988 120.123 95.2739 119.698 95.6988C119.273 96.1238 118.698 96.3647 118.097 96.3694H73.5304C72.9294 96.3647 72.3543 96.1238 71.9294 95.6988C71.5044 95.2739 71.2635 94.6988 71.2588 94.0978V49.4957C71.2635 48.8947 71.5044 48.3197 71.9294 47.8947C72.3543 47.4697 72.9294 47.2289 73.5304 47.2241H118.062C118.663 47.2289 119.238 47.4697 119.663 47.8947C120.088 48.3197 120.329 48.8947 120.334 49.4957L120.369 94.0968V94.0978Z" fill="#013E7D"/>
<path d="M101.703 87.1296C102.22 86.9628 102.665 86.6277 102.969 86.178C103.273 85.7282 103.418 85.1895 103.38 84.648V84.4347C103.355 84.071 103.255 83.7163 103.089 83.3922C102.922 83.0681 102.691 82.7813 102.409 82.5492C102.128 82.3172 101.803 82.1446 101.453 82.0421C101.103 81.9396 100.736 81.9093 100.374 81.953H96.1455V90.4122H98.1718V87.3739H99.6051L101.178 90.4144H103.45L101.703 87.1296ZM100.025 85.9416H98.0332V83.4599H100.025C100.192 83.4351 100.362 83.4495 100.521 83.5022C100.681 83.5549 100.826 83.6443 100.945 83.7633C101.064 83.8822 101.154 84.0274 101.206 84.1872C101.259 84.3469 101.273 84.5168 101.249 84.6832C101.319 85.5214 100.865 85.9405 100.025 85.9405V85.9416Z" fill="white"/>
<path d="M85.3406 81.9912H83.069L81.6356 85.6961L80.0626 82.9702C79.8707 82.6981 79.6206 82.4722 79.3304 82.3089C79.0402 82.1456 78.7172 82.0491 78.385 82.0264H77.2354L80.7313 88.1437L79.8226 90.5209H81.0459C81.3608 90.5057 81.6652 90.4029 81.9247 90.2238C82.1842 90.0448 82.3885 89.7967 82.5144 89.5077L85.3406 81.9912Z" fill="white"/>
<path d="M91.428 86.7454H88.5613L89.7846 83.5641C89.9243 83.2143 90.1344 83.2143 90.2389 83.5641L91.428 86.7454ZM91.9527 88.214L92.8262 90.4856H94.9591L92.1276 83.0405C91.9976 82.7544 91.7923 82.509 91.5336 82.3306C91.275 82.1521 90.9727 82.0473 90.6591 82.0273H88.1774L84.9961 90.4856H86.0444C86.3593 90.4704 86.6638 90.3675 86.9233 90.1885C87.1828 90.0095 87.387 89.7614 87.513 89.4724L87.9673 88.2492H91.9516V88.2118L91.9527 88.214Z" fill="white"/>
<path d="M108.764 83.6C108.904 83.2502 109.114 83.2502 109.218 83.6L110.442 86.7813H107.575L108.764 83.6ZM107.051 88.2136H110.997L111.452 89.4368C111.578 89.7259 111.782 89.9739 112.041 90.1529C112.301 90.332 112.605 90.4349 112.92 90.45H113.968L110.718 81.9907H108.271C107.956 82.0058 107.652 82.1087 107.393 82.2878C107.133 82.4668 106.929 82.7148 106.803 83.0039L103.976 90.4511H106.109L107.052 88.2115L107.051 88.2136Z" fill="white"/>
<path d="M102.997 67.3932C103.187 67.4601 103.39 67.4841 103.591 67.4636H107.331C105.443 65.786 104.29 61.6267 104.29 59.1451C104.29 56.593 105.444 52.4689 107.331 50.8266H103.588C103.387 50.8086 103.185 50.8326 102.994 50.8969C100.875 53.1235 99.6771 56.0695 99.6416 59.1429C99.6769 62.2183 100.876 65.1661 102.997 67.3932V67.3932Z" fill="white"/>
<path d="M94.9235 67.3932C95.1139 67.4601 95.3167 67.4841 95.5175 67.4636H99.2224C97.3348 65.786 96.1819 61.6267 96.1819 59.1451C96.1819 56.593 97.4052 52.4689 99.2224 50.8266H95.5143C95.3136 50.8086 95.1113 50.8326 94.9203 50.8969C92.8191 53.1349 91.6245 56.0737 91.5684 59.1429C91.6596 62.2067 92.8506 65.1353 94.9235 67.3932V67.3932Z" fill="white"/>
<path d="M86.9176 67.3934C87.0964 67.4581 87.2873 67.4821 87.4765 67.4638H91.2166C89.3289 65.7862 88.1761 61.627 88.1761 59.1453C88.1761 56.5932 89.33 52.4691 91.2166 50.8268H87.4775C87.2883 50.8056 87.0968 50.8298 86.9187 50.8971C84.7983 53.123 83.5992 56.0691 83.5625 59.1431C83.5978 62.2185 84.7966 65.1663 86.9176 67.3934V67.3934Z" fill="white"/>
<path d="M113.203 74.0339C112.549 72.8029 111.977 71.5299 111.491 70.2234C111.404 70.0416 111.363 69.8416 111.37 69.6405C111.377 69.4393 111.433 69.2428 111.533 69.0678C111.632 68.8928 111.772 68.7443 111.941 68.6351C112.11 68.5258 112.303 68.459 112.504 68.4402C112.809 68.405 113.093 68.263 113.304 68.0392C113.515 67.8154 113.64 67.5242 113.658 67.217V66.4523C113.655 66.3967 113.632 66.3441 113.592 66.3047C113.553 66.2653 113.5 66.2419 113.444 66.239H110.826C110.254 66.319 109.736 66.6199 109.383 67.0772C109.031 67.5345 108.871 68.1119 108.939 68.6855C108.868 72.496 108.939 72.9514 107.925 73.1647C107.889 73.1629 107.855 73.1476 107.829 73.1218C107.803 73.096 107.788 73.0615 107.786 73.025V72.9184C107.789 72.4356 107.696 71.9571 107.512 71.5105C107.329 71.0639 107.059 70.6582 106.718 70.3168C106.376 69.9755 105.97 69.7053 105.524 69.5219C105.077 69.3385 104.599 69.2457 104.116 69.2486C103.631 69.2489 103.152 69.3483 102.707 69.5407C102.263 69.7331 101.862 70.0144 101.53 70.3674V70.3674C101.53 70.4378 101.423 70.474 101.39 70.474C101.359 70.4724 101.329 70.4613 101.304 70.4423C101.279 70.4233 101.26 70.3971 101.25 70.3674C100.914 70.02 100.512 69.7424 100.069 69.5504C99.6249 69.3585 99.1477 69.2559 98.6642 69.2486C98.1796 69.2489 97.7002 69.3483 97.2555 69.5407C96.8107 69.7331 96.41 70.0144 96.078 70.3674V70.3674C96.078 70.4378 95.9713 70.474 95.9383 70.474C95.907 70.4724 95.8769 70.4613 95.8519 70.4423C95.827 70.4233 95.8084 70.3971 95.7986 70.3674V70.3674C95.4616 70.0186 95.059 69.7398 94.6138 69.5473C94.1687 69.3547 93.6899 69.2522 93.2049 69.2454C92.7203 69.2457 92.2409 69.3451 91.7962 69.5375C91.3514 69.7299 90.9507 70.0112 90.6187 70.3642C90.6187 70.4346 90.5121 70.4708 90.479 70.4708C90.4477 70.4692 90.4176 70.4581 90.3927 70.4391C90.3677 70.4201 90.3491 70.3939 90.3393 70.3642V70.3642C89.8349 69.8402 89.1849 69.4797 88.4733 69.3291C87.7618 69.1786 87.0214 69.245 86.348 69.5197C85.6746 69.7944 85.0991 70.2649 84.6959 70.8702C84.2928 71.4755 84.0805 72.1879 84.0866 72.9152V73.0218C84.0866 73.1285 83.9799 73.1615 83.8733 73.1615C82.8601 73.0218 82.9294 72.4971 82.8601 68.6823C82.9279 68.1087 82.7682 67.5313 82.4153 67.074C82.0625 66.6167 81.5445 66.3158 80.9724 66.2358H78.2497C78.1941 66.2387 78.1415 66.2621 78.1021 66.3015C78.0627 66.3409 78.0393 66.3935 78.0364 66.4491V67.2181C78.0424 67.5289 78.1639 67.8264 78.3772 68.0525C78.5905 68.2786 78.8804 68.4172 79.1904 68.4413C79.3912 68.4591 79.5848 68.5253 79.7545 68.6344C79.9241 68.7434 80.0648 68.8919 80.1644 69.0673C80.264 69.2426 80.3196 69.4395 80.3264 69.641C80.3333 69.8426 80.2911 70.0428 80.2035 70.2245C79.7106 71.5283 79.1387 72.8008 78.4908 74.035C78.1157 74.711 77.9247 75.4736 77.9371 76.2466C77.9494 77.0196 78.1646 77.7758 78.5611 78.4395C79.2256 79.4878 80.0297 80.4317 82.8601 80.4317H109.079C111.911 80.5021 112.749 79.523 113.378 78.4395C113.689 77.741 113.835 76.9803 113.805 76.2163C113.775 75.4523 113.569 74.7055 113.203 74.0339V74.0339ZM87.4769 75.047C87.0483 75.047 86.6293 74.92 86.2729 74.6818C85.9165 74.4437 85.6388 74.1053 85.4748 73.7093C85.3107 73.3133 85.2678 72.8776 85.3514 72.4572C85.4351 72.0368 85.6415 71.6507 85.9445 71.3476C86.2476 71.0446 86.6337 70.8382 87.0541 70.7545C87.4745 70.6709 87.9102 70.7138 88.3062 70.8779C88.7022 71.0419 89.0406 71.3196 89.2787 71.676C89.5169 72.0324 89.644 72.4514 89.644 72.88C89.6411 73.4539 89.4119 74.0034 89.0061 74.4092C88.6003 74.815 88.0508 75.0442 87.4769 75.047V75.047ZM93.0001 75.047C92.5715 75.047 92.1526 74.92 91.7962 74.6818C91.4398 74.4437 91.1621 74.1053 90.998 73.7093C90.834 73.3133 90.7911 72.8776 90.8747 72.4572C90.9583 72.0368 91.1647 71.6507 91.4678 71.3476C91.7709 71.0446 92.157 70.8382 92.5774 70.7545C92.9977 70.6709 93.4335 70.7138 93.8295 70.8779C94.2254 71.0419 94.5639 71.3196 94.802 71.676C95.0401 72.0324 95.1672 72.4514 95.1672 72.88C95.1688 73.165 95.1138 73.4475 95.0054 73.7111C94.8971 73.9747 94.7375 74.2143 94.536 74.4158C94.3344 74.6173 94.0949 74.7769 93.8313 74.8853C93.5677 74.9936 93.2852 75.0486 93.0001 75.047ZM98.5234 75.047C98.0948 75.047 97.6758 74.92 97.3195 74.6818C96.9631 74.4437 96.6853 74.1053 96.5213 73.7093C96.3573 73.3133 96.3144 72.8776 96.398 72.4572C96.4816 72.0368 96.688 71.6507 96.9911 71.3476C97.2941 71.0446 97.6803 70.8382 98.1006 70.7545C98.521 70.6709 98.9567 70.7138 99.3527 70.8779C99.7487 71.0419 100.087 71.3196 100.325 71.676C100.563 72.0324 100.691 72.4514 100.691 72.88C100.692 73.1651 100.637 73.4477 100.529 73.7114C100.42 73.9751 100.261 74.2146 100.059 74.4162C99.8572 74.6177 99.6176 74.7773 99.3538 74.8856C99.0901 74.9939 98.8075 75.0487 98.5224 75.047H98.5234ZM104.081 75.047C103.652 75.047 103.233 74.92 102.877 74.6818C102.52 74.4437 102.243 74.1053 102.079 73.7093C101.915 73.3133 101.872 72.8776 101.955 72.4572C102.039 72.0368 102.245 71.6507 102.548 71.3476C102.852 71.0446 103.238 70.8382 103.658 70.7545C104.078 70.6709 104.514 70.7138 104.91 70.8779C105.306 71.0419 105.645 71.3196 105.883 71.676C106.121 72.0324 106.248 72.4514 106.248 72.88C106.253 73.1657 106.2 73.4493 106.093 73.7142C105.985 73.9791 105.826 74.2197 105.624 74.4218C105.422 74.624 105.182 74.7835 104.917 74.8909C104.652 74.9983 104.369 75.0514 104.083 75.047H104.081Z" fill="white"/>
</svg>
